<svg width="24" height="22" viewBox="0 0 24 22" fill="none" xmlns="http://www.w3.org/2000/svg">
<path d="M16.7344 1.55556C17.3038 1.90123 17.7749 2.38992 18.1018 2.97405C18.4287 3.55819 18.6004 4.21787 18.6 4.88889C18.6004 5.55991 18.4287 6.21959 18.1018 6.80372C17.7749 7.38786 17.3038 7.87655 16.7344 8.22222M23 21V20.3333C23 17.8444 23 16.6 22.5204 15.6489C22.0986 14.8127 21.4255 14.1328 20.5976 13.7067M9.25 8.77778C9.75559 8.77778 10.2562 8.67719 10.7233 8.48175C11.1904 8.28632 11.6149 7.99987 11.9724 7.63875C12.3299 7.27763 12.6135 6.84892 12.8069 6.3771C13.0004 5.90528 13.1 5.39959 13.1 4.88889C13.1 4.37819 13.0004 3.8725 12.8069 3.40068C12.6135 2.92885 12.3299 2.50015 11.9724 2.13903C11.6149 1.77791 11.1904 1.49146 10.7233 1.29602C10.2562 1.10059 9.75559 1 9.25 1C8.22892 1 7.24965 1.40972 6.52764 2.13903C5.80562 2.86834 5.4 3.85749 5.4 4.88889C5.4 5.92029 5.80562 6.90944 6.52764 7.63875C7.24965 8.36806 8.22892 8.77778 9.25 8.77778ZM1 20.3333V21H17.5V20.3333C17.5 17.8444 17.5 16.6 17.0204 15.6489C16.5986 14.8127 15.9255 14.1328 15.0976 13.7067C14.156 13.2222 12.924 13.2222 10.46 13.2222H8.04C5.576 13.2222 4.344 13.2222 3.4024 13.7067C2.57452 14.1328 1.90144 14.8127 1.4796 15.6489C1 16.6 1 17.8444 1 20.3333Z" stroke="#FF725E" stroke-width="2" stroke-linecap="round" stroke-linejoin="round"/>
</svg>
