<svg width="134" height="146" viewBox="0 0 134 146" fill="none" xmlns="http://www.w3.org/2000/svg">
<path d="M91.5799 136.182C130.7 115.141 145.741 78.159 121.98 60.794C98.2199 43.429 103.999 46.814 98.8619 22.966C93.7249 -0.88102 17.6079 -12.838 7.82488 20.753C-1.95812 54.345 22.5579 81.079 5.80488 98.536C-10.9491 115.993 36.1349 166.003 91.5799 136.182Z" fill="#F0EEFC"/>
<path d="M26.5209 129.849C27.2359 133.039 26.8689 138.994 26.5209 141.971C26.1729 144.948 3.63088 145.586 0.652877 141.971C-2.32412 138.356 5.54387 140.057 10.8609 136.016C16.1779 131.975 16.1769 128.501 16.1769 128.501L26.5209 129.849Z" fill="#CC365D"/>
<path d="M13.4649 133.667C16.1769 135.591 18.0889 137.505 16.1759 139.632C14.2629 141.759 13.9719 138.415 8.90686 137.216L13.4649 133.667Z" fill="#E04164"/>
<path d="M22.3549 64.496C15.6609 63.923 11.3769 64.986 10.7539 78.809C10.1309 92.632 14.1719 130.912 14.1719 130.912H23.6829C23.6829 130.912 29.8249 121.129 29.8669 120.279C29.9089 119.428 29.3999 103.691 29.8669 102.415C30.3339 101.14 22.3549 64.496 22.3549 64.496Z" fill="#1D1F44"/>
<path d="M48.3629 52.302C45.4959 58.434 35.3819 64.897 35.3819 64.897L46.1919 78.768L68.7789 55.322L48.3629 52.302Z" fill="#8378C1"/>
<path d="M22.3549 29.922C15.1959 27.326 13.4259 20.362 17.4389 13.989C21.4519 7.61603 29.8289 5.78403 33.1359 13.989C33.1359 13.989 32.3949 7.26203 35.4799 7.14403C38.5649 7.02603 41.2229 12.337 41.2229 12.337C41.2229 12.337 50.7209 11.745 54.2609 18.532C57.8019 25.319 52.1609 37.374 52.1609 37.374L38.5649 32.041L22.3549 29.922Z" fill="#26274D"/>
<path d="M55.9789 40.834L50.6869 50.89C50.6869 50.89 48.9419 49.145 47.1879 48.11C46.4309 47.669 45.6729 47.353 45.0409 47.353C44.2159 47.353 42.8169 48.043 41.2249 48.906C38.7039 50.267 35.6939 52.079 33.7479 52.3C31.9739 52.492 29.5589 48.322 27.2769 42.953H27.2669C27.0469 43.068 23.7199 44.669 22.5699 42.953C21.3909 41.179 25.4459 38.332 24.2569 35.006C23.5959 33.06 22.9819 31.142 22.4549 29.369L22.9919 26.378L25.6279 22.658C25.6279 22.658 40.4489 21.604 43.9759 22.658C47.5139 23.713 50.3319 35.715 50.3319 35.715L55.9789 40.834Z" fill="#FFBE9D"/>
<path opacity="0.48" d="M32.7629 43.742C33.4419 41.968 35.4799 41.062 35.4799 41.062" stroke="#ED7845" stroke-width="1.0966" stroke-miterlimit="10" stroke-linecap="round"/>
<path d="M30.8059 33.5011C31.3689 34.4761 31.4049 35.5081 30.8859 35.8081C30.3669 36.1071 29.4909 35.5601 28.9279 34.5851C28.3649 33.6101 28.3289 32.5771 28.8479 32.2781C29.3669 31.9791 30.2429 32.5271 30.8059 33.5011Z" fill="#383838"/>
<path d="M19.7309 26.14C24.4019 32.991 34.0799 32.755 36.7939 30.985C39.5089 29.215 38.4459 26.14 38.4459 26.14C38.4459 26.14 42.6949 30.502 46.3539 29.091C50.0129 27.68 49.3039 23.667 49.3039 23.667L45.7639 18.474L29.3589 17.53L20.5069 18.946L19.7309 26.14Z" fill="#26274D"/>
<path d="M44.5839 31.103C44.2299 26.736 48.8329 24.848 51.1929 27.798C53.5529 30.749 51.0669 34.997 49.3599 36.296C47.6529 37.594 46.5899 35.006 46.5899 35.006" fill="#FFBE9D"/>
<path d="M47.1839 48.113C46.4349 47.668 45.6689 47.356 45.0429 47.356C44.2199 47.356 42.8199 48.039 41.2229 48.904C44.0059 46.08 46.1219 42.844 47.1839 42.4C48.2459 41.962 47.1839 48.113 47.1839 48.113Z" fill="#EF9B92"/>
<path d="M46.9229 31.517C47.8099 28.439 49.1369 29.03 49.3599 30.655C49.5829 32.28 47.6559 34.044 47.6559 34.044L46.9229 31.517Z" fill="#EF9B92"/>
<path d="M109.222 101.958L74.1829 104.163L58.6149 91.221L51.5309 85.335C51.5309 85.335 46.8239 73.793 48.2709 68.022C49.7189 62.251 51.5309 54.831 51.5309 54.831C51.5309 54.831 45.3479 53.92 46.2869 50.296C47.4089 45.982 51.4729 34.929 55.3369 34.085C59.1999 33.251 61.2609 36.28 61.2609 36.28C61.2609 36.28 72.2569 32.321 79.9549 42.339C87.6429 52.357 100.288 71.865 105.378 84.376C106.615 87.415 107.477 90.022 108.072 92.218C109.932 99.053 109.222 101.958 109.222 101.958Z" fill="#A69AD7"/>
<path d="M109.222 101.958L74.1829 104.163L58.6149 91.2211V88.3831C66.2549 82.4011 71.7389 65.7301 74.1739 65.5381C76.5989 65.3371 79.8139 77.5861 77.7719 85.8681C75.7299 94.1411 80.9019 97.6371 89.2439 97.6431C92.8389 97.6461 100.671 100.068 108.072 92.2171C109.932 99.0531 109.222 101.958 109.222 101.958Z" fill="#8378C1"/>
<path d="M37.2749 129.849C37.9899 133.039 37.6229 138.994 37.2749 141.971C36.9269 144.948 14.3849 145.586 11.4069 141.971C8.42987 138.356 16.2979 140.057 21.6149 136.016C26.9319 131.975 26.9309 128.501 26.9309 128.501L37.2749 129.849Z" fill="#E04164"/>
<path d="M24.2199 133.667C26.9319 135.591 28.8439 137.505 26.9309 139.632C25.0179 141.759 24.7269 138.415 19.6619 137.216L24.2199 133.667Z" fill="#FC6D92"/>
<path d="M107.238 119.558C104.784 130.736 96.6929 139.076 80.5209 137.504C59.3829 135.443 42.8459 112.972 39.1739 107.604C39.1639 107.595 39.1639 107.585 39.1639 107.585L38.5309 106.636L38.4259 106.473L38.4159 106.454L38.8379 130.698H22.2529C22.2529 130.698 19.7029 107.518 17.5079 90.291C15.3029 73.064 16.0889 67.322 21.1889 64.983C26.2889 62.644 32.4629 62.222 38.6269 66.9C44.7909 71.578 66.6959 95.87 76.9059 104.163L107.113 102.092C108.302 108.035 108.436 114.132 107.238 119.558Z" fill="#28295D"/>
<path d="M76.9079 104.161C76.9079 104.161 84.9889 110.71 88.8169 111.773C92.6449 112.836 101.577 102.416 101.577 102.416L76.9079 104.161Z" fill="#1D1F44"/>
<path d="M25.7639 79.153C23.2889 75.893 20.9449 75.945 18.8569 75.58C16.7689 75.216 15.2749 75.692 15.6389 77.431C16.0029 79.17 18.5529 79.152 18.5529 79.152C18.5529 79.152 14.6689 77.306 12.4159 78.768C10.7129 79.872 10.3579 82.266 13.2719 82.449C13.2719 82.449 11.9969 84.27 12.9079 85.909C13.8189 87.548 14.5469 87.366 14.5469 87.366C14.5469 87.366 14.1089 88.072 15.3839 89.347C16.6589 90.622 24.3069 89.367 26.9309 87.546C29.5549 85.725 25.7639 79.153 25.7639 79.153Z" fill="#FFBE9D"/>
<path d="M55.3389 45.895C51.7809 51.117 46.1909 75.832 46.1909 75.832C46.1909 75.832 25.5229 75.194 24.3129 77.959C23.1029 80.724 25.7639 89.551 25.7639 89.551C30.0169 90.614 52.4509 91.782 58.6179 88.379C64.7849 84.976 74.7809 65.411 74.1429 56.692" fill="#A69AD7"/>
<path d="M107.238 119.558C104.784 130.736 96.6929 139.076 80.5209 137.504C59.3829 135.443 42.8459 112.972 39.1739 107.604C39.1639 107.595 39.1639 107.585 39.1639 107.585L38.5309 106.636L38.4259 106.473L38.4159 106.454V94.4231C38.4159 94.4231 47.6089 112.34 60.2919 120.067C72.9849 127.784 90.3549 131.369 99.7309 125.311C102.886 123.268 105.359 121.294 107.238 119.558Z" fill="#1D1F44"/>
</svg>
