<svg width="156" height="153" viewBox="0 0 156 153" fill="none" xmlns="http://www.w3.org/2000/svg">
<path d="M81.3362 21.5033C106.197 25.9093 88.8823 58.8603 109.368 55.8053C129.855 52.7503 171.71 84.4253 134.333 109.78C96.9563 135.135 19.4542 128.014 12.0562 86.1143C4.65924 44.2133 52.7342 16.4343 81.3362 21.5033Z" fill="#F0EEFC"/>
<path d="M72.3042 11.4755C69.4882 3.46651 66.4422 -0.603491 55.2752 0.072509C44.1092 0.749509 39.8052 8.98351 38.6202 18.3735C37.4362 27.7635 42.2482 32.6915 37.3412 41.6885C32.4352 50.6845 30.7432 55.2535 29.8972 63.8815C29.0512 72.5105 24.6522 79.7855 10.9482 84.1835C-2.75579 88.5825 -2.92477 99.2415 6.71823 108.039C16.3612 116.836 18.7302 119.713 13.9932 126.988C9.25623 134.263 8.74821 145.09 26.5132 149.997C44.2772 154.903 50.3682 148.135 65.5952 152.027C80.8222 155.918 96.5562 144.243 109.245 143.568C121.934 142.891 136.822 137.816 146.804 129.864C156.786 121.912 159.155 113.115 150.019 109.223C140.883 105.332 127.517 108.715 126.333 101.779C125.149 94.8415 135.807 88.4125 133.439 80.4605C131.07 72.5085 120.919 71.6625 112.46 73.1855C104.001 74.7085 90.8042 72.1705 86.0672 65.2335C81.3302 58.2965 70.9962 48.9915 71.0092 43.4085C71.0232 37.5455 75.3652 20.1825 72.3042 11.4755Z" fill="#28295D"/>
<path d="M41.5602 24.8005C42.5392 32.3915 49.5652 34.2705 45.3602 39.6965C41.1552 45.1225 39.0692 54.4755 40.3892 55.7485C41.7092 57.0215 58.9093 52.0405 58.9093 52.0405L70.2292 50.6565V47.8045C70.2292 47.8045 65.1902 39.3545 67.2872 33.5205C69.3832 27.6865 41.5602 24.8005 41.5602 24.8005Z" fill="#1D1F44"/>
<path d="M36.2992 65.8375C31.3932 77.7545 39.8842 100.367 32.4892 104.262C25.0942 108.157 22.4042 119.114 40.8682 121.305C59.3322 123.496 77.7402 118.541 71.8222 124.853C65.9052 131.165 88.0092 128.994 96.4042 124.465C104.799 119.936 112.742 122.149 113.564 112.825C114.386 103.501 102.334 102.954 93.8432 102.954C85.3522 102.954 65.5602 96.0465 60.9392 97.3085C56.3182 98.5705 51.6622 83.2845 51.6622 83.2845L36.1332 63.6915" fill="#1D1F44"/>
<path d="M69.5792 34.9545C66.9422 38.7075 62.5612 40.1045 58.6682 39.0545C58.1142 38.9055 57.5692 38.7075 57.0402 38.4595C54.7342 37.3765 52.3372 36.2115 50.4522 34.2525C48.9232 32.6575 47.7412 30.5415 47.2282 27.5325L45.9962 16.4805L52.5182 7.03247C52.5182 7.03247 66.5212 9.15647 67.7942 9.39647C69.0672 9.63647 71.6382 16.4805 71.6382 16.4805C71.8612 25.1425 72.3652 30.9945 69.5792 34.9545Z" fill="#FFBE9D"/>
<path d="M65.2572 10.0815C61.0282 20.7405 49.8522 19.6975 49.8522 19.6975L48.0002 24.8005C48.0002 24.8005 45.1112 19.9155 43.7142 19.1175C42.3162 18.3205 43.0452 11.2655 43.0452 11.2655L52.0612 7.03549L62.7202 5.00549L65.2572 10.0815Z" fill="#28295D"/>
<path d="M48.4002 24.3965C47.0912 18.5685 42.3372 17.8025 41.1102 20.8695C39.8832 23.9365 43.3882 29.6665 49.8522 28.5375" fill="#FFBE9D"/>
<path d="M63.2272 9.57353C64.4112 16.0025 70.5022 19.3755 73.7172 18.1125C76.9322 16.8495 75.0702 9.57353 71.3482 7.37453C67.6262 5.17453 63.2272 9.57353 63.2272 9.57353Z" fill="#28295D"/>
<path d="M82.0032 114.64C80.3922 115.924 77.3382 116.26 75.3202 116.331C74.1512 116.375 73.3372 116.331 73.3372 116.331C73.3372 116.331 68.2292 121.155 59.3422 120.138C59.1122 120.111 58.8822 120.085 58.6522 120.049C49.3392 118.703 42.4172 113.454 40.3902 101.778L44.0282 97.8385L67.2922 72.6805C67.2922 72.6805 70.4792 74.3895 72.7452 76.3095C73.2412 76.7255 73.6922 77.1595 74.0552 77.5845C76.0812 79.9565 84.5442 112.604 82.0032 114.64Z" fill="#A69AD7"/>
<path d="M58.3062 119.11C58.7752 119.473 59.1122 119.818 59.3422 120.137C59.1122 120.11 58.8822 120.084 58.6522 120.048C49.3392 118.702 42.4172 113.453 40.3902 101.777L44.0282 97.8375L60.6972 104.265L76.2152 112.825C70.1422 115.853 57.5192 108.603 53.5442 110.285C49.5692 111.976 53.3842 115.277 58.3062 119.11Z" fill="#8378C1"/>
<path d="M67.2872 111.762C71.0092 115.822 78.7922 114.469 79.2992 111.762C79.4962 110.709 79.3242 109.708 79.0392 108.877C78.5852 107.554 77.3152 106.686 75.9162 106.686C75.9162 106.686 77.2692 105.84 76.9312 104.656C76.5932 103.472 72.7382 105.333 72.7382 105.333L67.2872 107.702V111.762Z" fill="#FFBE9D"/>
<path opacity="0.23" d="M82.0032 114.639C80.3922 115.923 77.3382 116.259 75.3202 116.33C75.2052 114.506 75.2932 111.904 75.3642 109.292C75.5062 104.361 70.4782 89.8885 70.2302 79.0885L72.7442 76.3085C73.2402 76.7245 73.6912 77.1585 74.0542 77.5835C76.0812 79.9565 84.5442 112.603 82.0032 114.639Z" fill="#1D1F44"/>
<path d="M82.8532 70.9895L72.5672 74.3175L71.2832 74.7335L70.8492 74.8755L69.6192 76.3275L49.8522 99.5825L40.4332 105.478C40.4062 105.496 40.3892 105.505 40.3892 105.505H40.3802L39.0342 106.346C38.9282 106.151 38.8132 105.939 38.6982 105.718C34.9182 98.1855 31.2272 77.1085 36.0872 60.8555L48.0022 49.3385L57.3062 43.4075L82.8532 70.9895Z" fill="#E04164"/>
<path d="M73.3282 72.6975C73.2842 72.7945 73.0092 73.3885 72.5672 74.3175C70.2392 79.1775 63.3162 93.3055 60.5282 94.8015C57.2612 96.5635 41.4252 104.956 40.4332 105.478C40.4062 105.496 40.3892 105.505 40.3892 105.505H40.3802L38.6982 105.717C34.9182 98.1835 31.2272 77.1065 36.0872 60.8535C36.0872 60.8535 35.5472 77.0355 42.8592 74.8755C50.1622 72.7155 55.2792 63.6955 55.2792 63.6955C52.7832 81.7545 60.1832 83.9585 64.1582 81.0105C65.9282 79.7095 67.9382 77.9205 69.6202 76.3275C70.2222 75.7615 70.7882 75.2215 71.2842 74.7345C72.4342 73.6095 73.2302 72.7955 73.3282 72.6975Z" fill="#CC365D"/>
<path d="M49.8532 43.4036C38.8632 49.5016 37.6792 51.5326 35.8182 62.3596C33.9572 73.1876 36.4952 89.2606 36.8332 93.6586C37.1712 98.0576 56.6282 108.547 62.2112 111.593C64.7232 112.963 65.4262 113.42 67.2872 111.762C69.5622 109.735 70.4092 106.345 70.4092 106.345C70.4092 106.345 59.1662 93.6586 54.9372 89.9366C50.7072 86.2146 49.8542 85.1996 49.8542 85.1996L56.6292 65.4046L56.4602 44.7636L49.8532 43.4036Z" fill="#E04164"/>
<path d="M59.5682 42.5645C67.4562 42.3955 73.5572 46.6255 77.8662 52.2085C82.1752 57.7915 89.1122 69.2535 89.1122 69.2535L90.3092 89.1155L75.5502 81.0905L58.3052 53.7315L55.2742 42.5605L59.5682 42.5645Z" fill="#E04164"/>
<path d="M106.878 99.9185C106.559 102.84 106.09 106.85 105.692 110.276V110.285C105.232 114.189 104.851 117.349 104.851 117.349C104.851 117.349 100.841 119.376 96.8402 118.703L91.9622 95.0405L85.5352 72.0065L86.4022 69.9705C87.0572 68.8635 87.7652 67.9255 88.5182 67.1465C93.9442 61.4365 101.363 63.7205 104.337 67.4385C107.719 71.6615 107.551 93.6595 106.878 99.9185Z" fill="#A69AD7"/>
<path d="M58.6512 41.3255V43.4055C58.6512 44.6185 58.1642 45.7155 57.3672 46.5125C56.5702 47.3095 55.4732 47.8055 54.2512 47.8055C51.8252 47.8055 49.8512 45.8315 49.8512 43.4055V36.1825C51.8692 38.2805 54.4362 39.5285 56.9062 40.6885C57.4732 40.9535 58.0582 41.1655 58.6512 41.3255Z" fill="#FFBE9D"/>
<path d="M32.6622 111.214C23.8402 121.64 44.8702 129.125 63.2272 126.452" stroke="#3F4277" stroke-width="1.0966" stroke-miterlimit="10" stroke-linecap="round"/>
<path d="M114.732 109.293C121.683 112.818 115.317 122.709 107.272 123.511" stroke="#3F4277" stroke-width="1.0966" stroke-miterlimit="10" stroke-linecap="round"/>
<path d="M79.3842 128.59C79.4442 132.6 89.3362 129.927 91.7412 128.59" stroke="#3F4277" stroke-width="1.0966" stroke-miterlimit="10" stroke-linecap="round"/>
<path d="M85.5362 139.55C87.4642 140.887 93.3452 137.144 93.3452 137.144" stroke="#3F4277" stroke-width="1.0966" stroke-miterlimit="10" stroke-linecap="round"/>
<path d="M27.5832 132.867C31.8602 137.946 42.8552 135.273 42.8552 135.273" stroke="#3F4277" stroke-width="1.0966" stroke-miterlimit="10" stroke-linecap="round"/>
<path opacity="0.48" d="M63.2272 33.1186C62.4482 31.8046 58.6512 32.0496 58.6512 32.0496" stroke="#ED7845" stroke-width="1.0966" stroke-miterlimit="10" stroke-linecap="round"/>
<path d="M60.5272 23.3665C60.5272 24.1585 60.1072 24.8005 59.5892 24.8005C59.0712 24.8005 58.6512 24.1585 58.6512 23.3665C58.6512 22.5745 59.0712 21.9325 59.5892 21.9325C60.1072 21.9325 60.5272 22.5745 60.5272 23.3665Z" fill="#383838"/>
<path d="M68.4212 23.3665C68.4212 24.1585 68.0012 24.8005 67.4832 24.8005C66.9652 24.8005 66.5452 24.1585 66.5452 23.3665C66.5452 22.5745 66.9652 21.9325 67.4832 21.9325C68.0012 21.9325 68.4212 22.5745 68.4212 23.3665Z" fill="#383838"/>
<path d="M94.5292 122.085C94.5292 122.085 94.4942 122.12 94.4142 122.182C93.6882 122.757 89.6602 125.687 83.6942 124.616C83.6942 124.616 80.7992 113.055 78.1702 104.849C77.4262 102.547 76.7092 100.52 76.0812 99.0766C73.2132 92.4726 69.3352 80.1156 70.8492 74.8746C72.7082 68.4476 85.2252 65.4026 88.4382 77.5836C91.6512 89.7646 93.5102 105.336 93.8472 110.913C93.9802 113.126 94.1132 115.339 94.2282 117.207C94.3522 119.234 94.4492 120.845 94.4942 121.606C94.5202 121.916 94.5292 122.085 94.5292 122.085Z" fill="#A69AD7"/>
<path d="M58.6512 39.0545V42.5555C55.8092 42.9985 49.8522 40.2445 49.8522 40.2445V33.5205C51.8702 35.6185 54.4372 37.2565 56.9072 38.4165C57.4732 38.6825 58.0582 38.8955 58.6512 39.0545Z" fill="#EF9B92"/>
<path opacity="0.48" d="M64.2622 26.6605C65.1102 28.3555 65.9572 30.7575 63.2272 29.9105" stroke="#ED7845" stroke-width="1.0966" stroke-miterlimit="10" stroke-linecap="round"/>
<path d="M46.8222 23.8915C45.2502 21.7665 43.6772 22.4105 43.4522 23.2125C43.2272 24.0145 44.9092 25.4755 46.8222 25.9255" fill="#EF9B92"/>
<path d="M105.692 110.284C105.232 114.188 104.851 117.348 104.851 117.348C104.851 117.348 100.841 119.375 96.8402 118.702L91.9622 95.0405L85.5352 72.0065L86.4022 69.9705C87.0572 68.8635 87.7652 67.9255 88.5182 67.1465C87.8102 75.6975 93.9182 88.7635 95.6002 96.2345C97.2822 103.706 102.983 115.728 105.692 110.284Z" fill="#8378C1"/>
<path d="M94.4942 121.607C94.4682 121.802 94.4412 121.997 94.4142 122.182C93.6882 122.757 89.6602 125.687 83.6942 124.616C83.6942 124.616 80.7992 113.055 78.1702 104.849C82.8262 114.303 91.4042 124.234 94.2282 117.206C94.3522 119.233 94.4492 120.845 94.4942 121.607Z" fill="#8378C1"/>
</svg>
