<svg width="647" height="376" viewBox="0 0 647 376" fill="none" xmlns="http://www.w3.org/2000/svg">
<path d="M39.1755 136.073C68.5411 99.6872 105.641 81.9639 185.174 78.2177C264.708 74.4715 283.802 134.619 412.76 122.251C541.719 109.882 609.39 113.535 633.762 148.271C658.135 183.008 669.164 297.286 477.995 281.585C286.827 265.883 225.818 236.633 138.68 252.477C51.5422 268.32 16.0042 263.059 7.42612 237.658C-1.15196 212.258 25.2971 153.269 39.1755 136.073Z" fill="#FFEFDF"/>
<path d="M29.8197 336.441C29.8197 336.441 159.691 335.07 325.069 336.441C490.446 337.813 607.883 337.871 627.266 348.811C646.649 359.751 638.282 379.251 535.86 374.376C433.438 369.501 375.574 353.928 314.433 362.933C253.292 371.938 201.09 361.488 151.94 361.839C102.791 362.189 32.1005 368.048 9.29712 357.196C-13.5063 346.344 10.4313 336.608 29.8197 336.441Z" fill="#FFEFDF"/>
<path d="M301.743 30.353H254.548C250.059 30.353 246.42 33.9722 246.42 38.436V70.9347C246.42 75.3994 250.059 79.0177 254.548 79.0177H260.233C258.733 83.2596 257.009 89.0363 258.475 89.6866C260.133 90.4221 267.741 83.2738 272.063 79.0177H301.743C306.232 79.0177 309.871 75.3985 309.871 70.9347V38.4369C309.871 33.9722 306.232 30.353 301.743 30.353Z" fill="#FF9400"/>
<path d="M267.332 44.8602C265.234 43.7473 264.646 40.9869 266.166 39.1679C267.965 37.0161 271.13 34.8264 276.474 35.0387C283.297 35.3089 289.216 39.984 288.961 46.3636C288.783 50.797 285.353 53.3801 280.913 55.0618C279.339 55.6798 279.243 56.9443 279.183 58.4373C279.126 59.8365 277.941 60.9256 276.534 60.8697L274.123 60.774C272.716 60.718 271.621 59.5388 271.677 58.1397L271.773 55.7414C271.853 53.7508 272.009 52.126 274.109 50.8947C276.955 49.2405 279.553 49.2074 279.682 45.9948C279.769 43.8231 278.193 42.2202 276.146 42.1387C274.29 42.0647 272.941 42.8847 272.013 43.9587C270.847 45.3085 268.91 45.6972 267.332 44.8602ZM280.226 68.7659C280.112 71.6163 277.7 73.8316 274.788 73.716C271.922 73.6022 269.694 71.203 269.809 68.3526C269.925 65.4567 272.337 63.2414 275.203 63.3552C278.115 63.4708 280.343 65.87 280.226 68.7659Z" fill="white"/>
<path d="M247.269 328.107L250.881 342.281L255.696 343.348L264.123 342.281L261.032 328.107H247.269Z" fill="#FFA78C"/>
<path d="M250.002 341.626C250.002 341.626 250.696 351.012 251.173 352.476C251.651 353.939 252.579 353.79 252.579 353.79C252.579 353.79 257.83 355.344 261.362 355.893C264.894 356.442 269.19 357.357 273.391 357.174C277.591 356.991 279.214 356.442 279.214 355.07C279.214 353.699 278.737 351.046 273.582 347.937C268.427 344.828 265.467 342.815 265.467 342.815C265.467 342.815 264.512 341.169 262.698 340.529C260.885 339.889 256.652 342.45 255.57 342.723C254.489 342.997 251.243 340.619 250.002 341.626Z" fill="#00557F"/>
<path d="M197.678 329.876V340.896L205.152 343.005L209.991 340.896V329.876H197.678Z" fill="#FFA78C"/>
<path d="M196.448 340.897C196.448 340.897 193.028 344.162 187.556 347.7C182.084 351.238 181.947 352.054 182.221 354.23C182.494 356.407 195.764 355.727 200.826 354.911C205.887 354.095 207.939 353.686 207.939 353.686L211.359 352.598L209.991 340.081C209.991 340.081 206.845 341.169 205.46 341.271C204.075 341.374 200.946 338.924 198.894 338.414C196.841 337.904 196.414 340.217 196.448 340.897Z" fill="#00557F"/>
<path d="M297.851 98.4125C296.802 98.5926 295.271 100.571 294.458 101.724L293.967 101.649C295.166 99.8154 297.966 96.7868 296.067 97.2389C294.365 97.6437 292.743 100.295 292.145 101.373L291.533 101.28C292.702 99.3102 295.897 95.7583 293.846 96.2683C291.948 96.7403 290.144 100.011 289.639 100.993L289.29 100.94C290.4 99.0078 291.956 96.6522 290.411 97.1906C288.694 97.7897 287.302 100.944 286.9 101.94C285.986 102.88 284.933 104.027 284.248 104.783C283.652 102.437 282.123 99.5557 281.383 99.7396C280.563 99.9434 281.486 102.699 281.64 104.586C281.743 105.843 282.321 107.3 282.698 108.136C280.313 112.881 273.027 124.255 269.222 132.624L258.76 121.78L243.441 130.76C243.441 130.76 260.444 152.937 267.173 151.916C282.143 149.644 289.661 117.943 291.263 110.3L295.997 102.287C295.997 102.287 299.338 98.1575 297.851 98.4125Z" fill="#FFA78C"/>
<path d="M222.873 103.145L217.195 108.65L207.274 104.983C207.465 103.373 207.456 101.745 207.35 100.297C207.283 99.3732 207.187 98.5162 207.082 97.774C206.843 96.0886 206.565 94.9738 206.565 94.9738L221.456 94.2695C221.361 94.879 221.331 95.536 221.361 96.2033C221.389 96.9465 221.476 97.6982 221.609 98.4224C222.04 100.954 222.873 103.145 222.873 103.145Z" fill="#FFA78C"/>
<path d="M221.609 98.4218C219.934 99.8882 216.946 102.26 214.925 102.394C212.905 102.527 209.371 101.165 207.351 100.299C207.284 99.3744 207.188 98.5175 207.083 97.7753C207.686 98.09 210.904 99.6323 214.715 98.9943C217.492 98.5279 219.982 97.1184 221.361 96.2036C221.389 96.9449 221.475 97.6976 221.609 98.4218Z" fill="#D88471"/>
<path d="M193.812 70.5113C193.812 70.5113 195.994 85.08 197.589 90.0471C199.183 95.0142 208.061 99.2173 214.238 99.3017C219.49 99.3738 226.949 91.7922 228.141 87.4991C229.333 83.205 227.686 64.0436 227.686 64.0436C227.686 64.0436 204.731 45.4339 193.812 70.5113Z" fill="#FFA78C"/>
<path d="M206.968 78.8492C207.095 79.8294 206.746 80.6825 206.187 80.7555C205.628 80.8276 205.071 80.091 204.943 79.1109C204.815 78.1307 205.164 77.2776 205.724 77.2046C206.282 77.1325 206.839 77.8681 206.968 78.8492Z" fill="#00557F"/>
<path d="M219.686 77.1399C219.778 78.1239 219.398 78.9647 218.837 79.0168C218.275 79.069 217.745 78.3135 217.653 77.3286C217.561 76.3446 217.941 75.5038 218.502 75.4517C219.064 75.4005 219.594 76.156 219.686 77.1399Z" fill="#00557F"/>
<path d="M196.614 79.3086C196.614 79.3086 193.041 75.9159 191.01 77.2089C188.98 78.5009 190.035 83.5088 192.797 86.0938C195.558 88.6788 197.669 87.3858 197.669 87.3858L196.614 79.3086Z" fill="#FFA78C"/>
<path d="M227.152 75.2697C227.152 75.2697 229.859 71.1595 232.13 71.9605C234.402 72.7605 234.517 77.8765 232.417 81.0169C230.317 84.1574 227.966 83.3754 227.966 83.3754L227.152 75.2697Z" fill="#FFA78C"/>
<path d="M195.097 78.387L196.478 83.4612C196.478 83.4612 199.756 82.2754 198.512 71.2567C198.512 71.2567 205.182 70.2443 207.217 67.0962C207.217 67.0962 212.757 68.4347 216.036 67.8783C219.314 67.3218 222.027 64.9605 222.027 64.9605C222.027 64.9605 222.253 73.0056 225.757 74.2113C225.757 74.2113 225.732 79.2989 227.61 79.8316C227.61 79.8316 227.993 72.7677 230.889 71.9562C230.889 71.9562 232.994 65.298 232.315 63.1614C231.636 61.0248 229.489 60.4626 229.489 60.4626C229.489 60.4626 228.591 48.9406 210.609 51.4678C193.275 53.9039 190.864 63.0486 190.336 64.6231C189.585 66.8649 190.712 69.0859 190.939 71.8576C191.165 74.6294 192.182 76.9243 192.182 76.9243L195.097 78.387Z" fill="#00557F"/>
<path d="M264.985 330.831H245.421L222.027 211.241L219.566 211.383L214.72 330.831H194.601L194.037 266.041L193.883 248.489L193.299 181.983H244.397L253.494 247.736L255.945 265.45L264.985 330.831Z" fill="#FFD07F"/>
<path d="M200.381 199.995C202.433 200.505 203.048 199.536 202.586 198.974C202.125 198.413 198.116 196.462 197.141 195.358L193.887 191.677C193.887 191.677 195.866 191.83 197.862 191.677C199.858 191.525 201.304 190.3 198.38 189.994C196.247 189.77 193.144 189.332 191.619 189.111L191.091 188.514L181.478 167.834L190.971 139.807L175.792 132.302C175.792 132.302 165.122 161.303 164.027 167.834C162.932 174.365 185.915 197.766 185.915 197.766L185.927 197.744C186.728 199.43 187.944 201.765 189.199 203.309C191.354 205.963 193.119 206.251 193.119 206.251L193.12 206.249C193.598 206.513 194.065 206.724 194.483 206.828C196.535 207.338 197.15 206.369 196.688 205.807C196.446 205.513 195.231 204.838 193.988 204.102L194.196 203.589C195.339 204.448 196.765 205.392 197.817 205.654C199.869 206.164 200.484 205.195 200.022 204.634C199.617 204.141 196.478 202.578 195.058 201.456L195.371 200.684C196.569 201.619 198.257 202.807 199.458 203.105C201.51 203.615 202.126 202.646 201.663 202.084C201.207 201.528 197.278 199.613 196.253 198.504L196.55 197.769C197.724 198.669 199.263 199.717 200.381 199.995Z" fill="#FFA78C"/>
<path d="M207.396 101.155L183.656 112.12L191.09 159.943L193.3 181.984H244.395L245.42 158.311V105.069L222.314 101.457C222.314 101.457 220.181 106.086 215.666 106.689C211.154 107.291 207.396 101.155 207.396 101.155Z" fill="#00557F"/>
<path d="M183.657 112.121C183.657 112.121 174.423 127.038 171.96 133.831C171.96 133.831 181.527 139.536 190.97 139.808C190.97 139.808 191.797 119.264 183.657 112.121Z" fill="#00557F"/>
<path d="M245.394 105.067C245.394 105.067 257.166 115.808 262.249 120.965C262.249 120.965 254.759 128.72 245.422 134.502C245.422 134.502 240.984 114.932 245.394 105.067Z" fill="#00557F"/>
<path d="M201.523 74.1329C201.523 74.1329 205.358 74.1328 206.978 72.4692" stroke="#00557F" stroke-miterlimit="10" stroke-linecap="round" stroke-linejoin="round"/>
<path d="M221.744 71.384C221.744 71.384 218.907 70.6607 217.235 71.384" stroke="#00557F" stroke-miterlimit="10" stroke-linecap="round" stroke-linejoin="round"/>
<path d="M211.851 76.915C211.851 76.915 212.579 80.7883 212.215 81.3665C212.215 81.3665 210.97 81.6556 211.265 83.1021C211.561 84.5487 212.943 84.6217 212.943 84.6217" stroke="#BF6D60" stroke-miterlimit="10" stroke-linecap="round" stroke-linejoin="round"/>
<path d="M210.761 88.6011C210.761 88.6011 215.053 87.2266 217.235 88.6011C219.416 89.9756 212.143 90.9159 210.761 90.9159C209.379 90.9159 209.451 89.3244 210.761 88.6011Z" fill="white"/>
<path d="M231.763 75.272C231.763 75.272 229.521 77.2854 229.035 80.3718" stroke="#BF6D60" stroke-miterlimit="10" stroke-linecap="round" stroke-linejoin="round"/>
<path d="M231.327 79.7758C231.327 79.7758 231.01 77.9482 230.213 77.2344" stroke="#BF6D60" stroke-miterlimit="10" stroke-linecap="round" stroke-linejoin="round"/>
<path d="M191.886 79.667C191.886 79.667 194.732 81.5439 195.596 84.6218" stroke="#BF6D60" stroke-miterlimit="10" stroke-linecap="round" stroke-linejoin="round"/>
<path d="M193.086 83.9534C193.086 83.9534 193.141 82.3144 193.741 81.3438" stroke="#BF6D60" stroke-miterlimit="10" stroke-linecap="round" stroke-linejoin="round"/>
<path d="M187.051 116.719C187.051 116.719 186.711 131.764 187.919 139.542" stroke="#004560" stroke-miterlimit="10" stroke-linecap="round" stroke-linejoin="round"/>
<path d="M243.622 112.732C243.622 112.732 246.159 127.413 245.304 133.95" stroke="#004560" stroke-miterlimit="10" stroke-linecap="round" stroke-linejoin="round"/>
<path d="M206.565 106.202C206.565 106.202 210.111 109.603 215.584 109.196C221.056 108.787 222.873 106.202 222.873 106.202" stroke="#004560" stroke-miterlimit="10" stroke-linecap="round" stroke-linejoin="round"/>
<path d="M180.562 167.971C180.562 167.971 177.69 167.834 175.09 167.971" stroke="#BF6D60" stroke-miterlimit="10" stroke-linecap="round" stroke-linejoin="round"/>
<path d="M269.222 132.625C269.222 132.625 267.294 137.507 266.747 139.542" stroke="#BF6D60" stroke-miterlimit="10" stroke-linecap="round" stroke-linejoin="round"/>
<path d="M284.247 104.783L285.762 107.154" stroke="#BF6D60" stroke-miterlimit="10" stroke-linecap="round" stroke-linejoin="round"/>
<path d="M287.951 101.155C287.951 101.155 292.979 101.323 294.655 102.401" stroke="#BF6D60" stroke-miterlimit="10" stroke-linecap="round" stroke-linejoin="round"/>
<path d="M194.79 185.046H241.781" stroke="#BF6D60" stroke-miterlimit="10" stroke-linecap="round" stroke-linejoin="round"/>
<path d="M217.567 185.046C217.567 185.046 214.079 203.799 220.235 206.974V189.536" stroke="#BF6D60" stroke-miterlimit="10" stroke-linecap="round" stroke-linejoin="round"/>
<path d="M207.718 203.617C207.718 203.617 213.598 207.276 216.583 209.331" stroke="#BF6D60" stroke-miterlimit="10" stroke-linecap="round" stroke-linejoin="round"/>
<path d="M224.339 209.332C224.339 209.332 231.521 202.189 232.957 199.943" stroke="#BF6D60" stroke-miterlimit="10" stroke-linecap="round" stroke-linejoin="round"/>
<path d="M196.75 325.863C196.75 325.863 204.33 326.679 211.36 325.863" stroke="#BF6D60" stroke-miterlimit="10" stroke-linecap="round" stroke-linejoin="round"/>
<path d="M261.685 325.863C261.685 325.863 252.656 326.498 246.5 326.544" stroke="#BF6D60" stroke-miterlimit="10" stroke-linecap="round" stroke-linejoin="round"/>
<path d="M183.094 352.291C183.094 352.291 186.069 353.209 194.072 352.801C202.074 352.392 209.991 350.25 209.991 350.25" stroke="#00415B" stroke-miterlimit="10" stroke-linecap="round" stroke-linejoin="round"/>
<path d="M252.451 350.965C252.451 350.965 263.122 354.026 269.073 354.638C275.023 355.25 278.513 353.923 278.513 353.923" stroke="#00415B" stroke-miterlimit="10" stroke-linecap="round" stroke-linejoin="round"/>
<path d="M191.39 345.043C191.39 345.043 193.782 345.043 196.175 347.017" stroke="#00415B" stroke-miterlimit="10" stroke-linecap="round" stroke-linejoin="round"/>
<path d="M192.894 343.763C192.894 343.763 195.286 343.763 197.678 345.737" stroke="#00415B" stroke-miterlimit="10" stroke-linecap="round" stroke-linejoin="round"/>
<path d="M194.398 342.481C194.398 342.481 196.79 342.481 199.182 344.455" stroke="#00415B" stroke-miterlimit="10" stroke-linecap="round" stroke-linejoin="round"/>
<path d="M268.881 345.604C268.881 345.604 266.489 345.604 264.097 347.578" stroke="#00415B" stroke-miterlimit="10" stroke-linecap="round" stroke-linejoin="round"/>
<path d="M267.377 344.323C267.377 344.323 264.985 344.323 262.592 346.297" stroke="#00415B" stroke-miterlimit="10" stroke-linecap="round" stroke-linejoin="round"/>
<path d="M265.873 343.042C265.873 343.042 263.481 343.042 261.088 345.016" stroke="#00415B" stroke-miterlimit="10" stroke-linecap="round" stroke-linejoin="round"/>
<path d="M228.032 61.1685L224.441 63.0046" stroke="#004560" stroke-miterlimit="10" stroke-linecap="round" stroke-linejoin="round"/>
<path d="M222.903 63.8208C222.903 63.8208 219.167 70.5748 207.218 67.0959C207.218 67.0959 202.084 71.827 196.432 71.2232" stroke="#004560" stroke-miterlimit="10" stroke-linecap="round" stroke-linejoin="round"/>
<path d="M225.758 74.2108C225.758 74.2108 222.589 72.9017 222.028 64.96" stroke="#004560" stroke-miterlimit="10" stroke-linecap="round" stroke-linejoin="round"/>
<path d="M192.464 63.8208C192.464 63.8208 191.718 65.6427 191.885 67.2826" stroke="#004560" stroke-miterlimit="10" stroke-linecap="round" stroke-linejoin="round"/>
<path d="M194.722 67.5483C194.722 67.5483 194.354 68.6821 194.23 69.5845" stroke="#004560" stroke-miterlimit="10" stroke-linecap="round" stroke-linejoin="round"/>
<path d="M227.152 65.9976L227.955 67.5484" stroke="#004560" stroke-miterlimit="10" stroke-linecap="round" stroke-linejoin="round"/>
<path d="M225.091 56.27C225.091 56.27 226.528 57.3582 226.665 58.2427" stroke="#004560" stroke-miterlimit="10" stroke-linecap="round" stroke-linejoin="round"/>
<path d="M222.561 58.2427C222.561 58.2427 223.583 58.9233 223.893 59.3991" stroke="#004560" stroke-miterlimit="10" stroke-linecap="round" stroke-linejoin="round"/>
<path d="M208.06 64.96L209.667 63.3447" stroke="#004560" stroke-miterlimit="10" stroke-linecap="round" stroke-linejoin="round"/>
<path d="M206.006 257.222C206.006 262.632 202.272 267.022 197.665 267.022C196.363 267.022 195.128 266.669 194.036 266.041L193.882 248.488C195.013 247.812 196.305 247.431 197.665 247.431C202.272 247.431 206.006 251.812 206.006 257.222Z" fill="#F2BD70"/>
<path d="M255.945 265.45C254.643 266.45 253.091 267.021 251.425 267.021C246.818 267.021 243.084 262.631 243.084 257.222C243.084 251.813 246.818 247.432 251.425 247.432C252.143 247.432 252.833 247.537 253.493 247.737L255.945 265.45Z" fill="#F2BD70"/>
<path d="M393.288 9.12418C391.356 8.15635 390.762 5.65857 392.107 3.97315C393.698 1.97872 396.529 -0.0782809 401.394 0.00229281C407.604 0.105617 413.085 4.23289 412.987 10.0389C412.92 14.0743 409.855 16.4943 405.853 18.1162C404.435 18.7106 404.374 19.8632 404.351 21.2216C404.329 22.4956 403.274 23.5109 401.994 23.4891L399.8 23.453C398.519 23.4312 397.499 22.3819 397.52 21.1088L397.556 18.9267C397.587 17.1152 397.695 15.6336 399.578 14.4705C402.13 12.9064 404.492 12.822 404.542 9.89864C404.575 7.92221 403.108 6.49749 401.245 6.4662C399.556 6.43871 398.345 7.21127 397.526 8.20754C396.494 9.4588 394.741 9.85124 393.288 9.12418ZM405.519 30.5909C405.475 33.1844 403.328 35.25 400.679 35.2064C398.07 35.1628 395.994 33.028 396.037 30.4336C396.081 27.7983 398.228 25.7328 400.836 25.7764C403.487 25.82 405.563 27.9557 405.519 30.5909Z" fill="#FF9400"/>
<path d="M431.486 26.6354C430.141 24.9509 430.654 22.4361 432.585 21.4664C434.87 20.3184 438.307 19.6321 442.689 21.7337C448.284 24.4163 451.52 30.4489 448.984 35.6796C447.222 39.3149 443.42 40.2343 439.102 40.0381C437.564 39.9869 437.023 41.0069 436.429 42.2316C435.873 43.3786 434.487 43.8602 433.334 43.3075L431.357 42.3596C430.204 41.806 429.719 40.4277 430.275 39.2807L431.228 37.3147C432.019 35.6824 432.742 34.3828 434.942 34.1117C437.918 33.7562 440.098 34.6643 441.375 32.031C442.239 30.2498 441.508 28.3455 439.829 27.5397C438.308 26.8098 436.883 27.007 435.718 27.5691C434.255 28.2753 432.499 27.9018 431.486 26.6354ZM433.541 51.2246C432.408 53.5612 429.589 54.5414 427.202 53.3963C424.853 52.2692 423.867 49.4652 425 47.1286C426.152 44.7541 428.971 43.7748 431.321 44.901C433.707 46.0461 434.693 48.85 433.541 51.2246Z" fill="#FF9400"/>
<path d="M353.409 27.345C351.283 27.7479 349.284 26.1269 349.317 23.9751C349.357 21.43 350.342 18.0838 354.248 15.2002C359.236 11.5194 366.111 11.472 369.59 16.1348C372.008 19.3758 371.061 23.1514 368.88 26.8635C368.119 28.1944 368.777 29.1451 369.592 30.2362C370.355 31.259 370.14 32.7036 369.111 33.4629L367.349 34.7635C366.321 35.5228 364.868 35.3085 364.105 34.2857L362.797 32.533C361.711 31.078 360.89 29.8381 361.67 27.7744C362.737 24.9875 364.558 23.4898 362.807 21.1418C361.622 19.554 359.586 19.3132 358.09 20.4176C356.733 21.4186 356.246 22.7646 356.206 24.0519C356.156 25.6681 355.007 27.0417 353.409 27.345ZM376.257 36.9589C377.811 39.0424 377.374 41.98 375.246 43.5508C373.151 45.0968 370.196 44.6617 368.642 42.5782C367.063 40.4615 367.501 37.5229 369.596 35.9768C371.723 34.4061 374.678 34.8422 376.257 36.9589Z" fill="#FF9400"/>
<path d="M358.717 325.448L357.759 339.458L344.165 350.655L346.774 354.478L372.313 349.972L374.373 326.377L358.717 325.448Z" fill="#FFA78C"/>
<path d="M352.472 343.28C352.472 343.28 356.728 347.718 363.712 347.902C365.931 347.961 372.828 345.841 372.828 345.841C372.828 345.841 373.274 350.825 372.176 354.137C371.631 355.779 347.323 359.258 343.615 359.121C339.908 358.985 338.947 358.575 338.123 357.414C337.299 356.254 336.612 354.273 340.045 352.088C343.478 349.903 352.472 343.28 352.472 343.28Z" fill="#00557F"/>
<path d="M423.315 324.525L424.273 338.534L437.867 349.732L435.257 353.556L409.718 349.049L407.658 325.454L423.315 324.525Z" fill="#FFA78C"/>
<path d="M429.559 342.358C429.559 342.358 425.303 346.797 418.319 346.98C416.1 347.039 409.203 344.919 409.203 344.919C409.203 344.919 408.757 349.903 409.855 353.215C410.4 354.857 434.708 358.336 438.416 358.199C442.123 358.063 443.084 357.653 443.908 356.492C444.731 355.331 445.418 353.351 441.985 351.167C438.553 348.982 429.559 342.358 429.559 342.358Z" fill="#00557F"/>
<path d="M362.976 173.781L354.6 326.377H376.981L390.521 198.254L393.527 198.834L405.267 326.377L426.646 325.435L419.337 173.781H362.976Z" fill="#00557F"/>
<path d="M419.337 154.072V95.6977C419.337 95.6977 406.028 91.834 387.627 91.5231C387.627 91.5231 370.46 90.6263 366.135 91.5231L362.552 154.072L358.27 179.532C358.27 179.532 382.818 183.779 388.585 183.369L392.704 177.428L396.206 183.396C396.206 183.396 412.065 183.069 422.775 179.531L419.337 154.072Z" fill="#FFD07F"/>
<path d="M401.636 94.9017C401.587 96.699 401.741 98.0754 401.741 98.0754L394.946 101.928L386.382 95.9824C386.968 94.4913 387.362 92.9329 387.622 91.5281C387.68 91.2124 387.737 90.9072 387.785 90.6105C387.881 90.056 387.948 89.5308 387.997 89.0521C388.14 87.762 388.189 86.796 388.199 86.4235C388.208 86.3088 388.208 86.251 388.208 86.251L389.208 86.4614L402.596 89.2531C402.356 89.8076 402.164 90.4285 402.029 91.0693C401.866 91.7859 401.761 92.5225 401.712 93.2486C401.664 93.8221 401.636 94.3766 401.636 94.9017Z" fill="#FFA78C"/>
<path d="M345.126 120.595C345.126 120.595 358.284 92.4876 366.134 91.5235C376.224 90.2836 368.743 115.636 368.743 115.636L356.247 137.663L345.126 120.595Z" fill="#FFD07F"/>
<path d="M439.385 123.468C439.385 123.468 426.227 96.4964 418.377 95.5323C408.288 94.2924 415.769 119.645 415.769 119.645L428.264 139.855L439.385 123.468Z" fill="#FFD07F"/>
<path d="M356.66 130.838C355.213 128.22 334.862 112.419 329.931 108.612L328.58 106.759C328.58 106.759 326.452 103.823 323.98 103.072C322.775 102.705 317.664 101.089 316.154 101.022C314.643 100.955 316.154 102.921 317.321 103.372C318.488 103.823 320.685 104.542 320.685 104.542L311.692 108.535C311.692 108.535 306.56 110.498 306.096 111.83C305.632 113.161 307.744 112.341 309.649 111.574C311.062 111.004 312.584 110.323 313.278 110.009L313.433 110.153C312.808 110.397 308.346 112.178 307.915 113.416C307.452 114.748 309.563 113.928 311.469 113.16C312.838 112.608 314.301 111.956 315.024 111.629L315.314 111.898C314.329 112.29 310.344 113.94 309.938 115.106C309.475 116.438 311.586 115.618 313.491 114.851C314.782 114.33 316.15 113.723 316.91 113.38L317.148 113.601C315.706 114.203 312.659 115.579 312.307 116.591C311.844 117.923 313.955 117.103 315.861 116.335C316.894 115.919 317.976 115.447 318.76 115.098C318.76 115.098 320.482 114.561 322.512 113.724C323.349 114.997 341.213 141.992 349.659 141.992C358.308 141.992 358.308 133.819 356.66 130.838Z" fill="#FFA78C"/>
<path d="M473.356 112.407C472.893 111.075 467.76 109.112 467.76 109.112L458.767 105.119C458.767 105.119 460.964 104.4 462.13 103.949C463.297 103.498 464.808 101.533 463.297 101.599C461.786 101.667 456.676 103.283 455.471 103.649C452.999 104.399 450.871 107.336 450.871 107.336L449.927 108.631C446.227 113.009 429.219 133.241 428.346 136.145C427.366 139.404 429.097 147.393 437.553 145.581C444.64 144.063 454.298 121.647 457.241 114.426C459.138 115.193 460.693 115.675 460.693 115.675C461.477 116.024 462.559 116.496 463.592 116.912C465.498 117.68 467.609 118.5 467.146 117.168C466.793 116.156 463.747 114.78 462.304 114.178L462.542 113.957C463.302 114.3 464.67 114.907 465.961 115.428C467.866 116.195 469.977 117.015 469.513 115.684C469.107 114.518 465.122 112.867 464.138 112.475L464.427 112.207C465.149 112.533 466.613 113.186 467.982 113.737C469.888 114.505 471.999 115.325 471.536 113.993C471.105 112.755 466.643 110.973 466.018 110.73L466.173 110.586C466.868 110.9 468.389 111.581 469.803 112.151C471.708 112.918 473.819 113.738 473.356 112.407Z" fill="#FFA78C"/>
<path d="M366.547 96.313C366.547 96.313 369.829 106.742 366.231 120.065" stroke="#BF6D60" stroke-miterlimit="10" stroke-linecap="round" stroke-linejoin="round"/>
<path d="M419.337 100.407C419.337 100.407 415.624 113.692 417.48 122.413" stroke="#BF6D60" stroke-miterlimit="10" stroke-linecap="round" stroke-linejoin="round"/>
<path d="M365.31 153.872L367.916 155.306L366.231 157.969" stroke="#BF6D60" stroke-miterlimit="10" stroke-linecap="round" stroke-linejoin="round"/>
<path d="M418.148 155.921L415.434 157.969" stroke="#BF6D60" stroke-miterlimit="10" stroke-linecap="round" stroke-linejoin="round"/>
<path d="M394.942 101.928L392.703 177.43" stroke="#BF6D60" stroke-miterlimit="10" stroke-linecap="round" stroke-linejoin="round"/>
<path d="M402.596 89.2524C402.356 89.8069 402.164 90.4278 402.029 91.0686C401.866 91.7853 401.761 92.5218 401.712 93.2479C401.664 93.8214 401.635 94.3759 401.635 94.902C399.789 95.2935 397.406 95.2461 394.493 94.0897C390.907 92.6649 388.899 91.48 387.784 90.6098C387.88 90.0553 387.947 89.5301 387.996 89.0514C388.139 87.7613 388.188 86.7954 388.198 86.4229L389.207 86.4608L402.596 89.2524Z" fill="#D88471"/>
<path d="M382.129 59.7424C382.129 59.7424 380.578 74.1916 380.862 79.3275C381.146 84.4634 388.574 90.6676 394.451 92.2724C399.447 93.6374 408.461 88.239 410.67 84.433C412.88 80.6271 416.086 61.9245 416.086 61.9245C416.086 61.9245 398.811 38.4918 382.129 59.7424Z" fill="#FFA78C"/>
<path d="M382.61 68.8341C382.61 68.8341 380.045 64.7134 377.784 65.4462C375.523 66.1789 375.282 71.221 377.273 74.37C379.264 77.519 381.603 76.8061 381.603 76.8061L382.61 68.8341Z" fill="#FFA78C"/>
<path d="M412.777 72.5131C412.777 72.5131 416.386 69.2561 418.356 70.5813C420.326 71.9065 419.159 76.8186 416.371 79.2993C413.583 81.7801 411.533 80.452 411.533 80.452L412.777 72.5131Z" fill="#FFA78C"/>
<path d="M392.6 42.5423C385.598 43.9766 385.7 48.0725 381.89 48.9949C378.079 49.9163 376.439 52.2719 375.92 54.7298C375.402 57.1878 376.226 57.1878 376.946 57.1878C377.667 57.1878 378.079 57.1878 378.079 57.1878C378.079 57.1878 378.17 59.5813 377.976 62.5132C377.783 65.4452 379.265 65.8935 379.265 65.8935C379.265 65.8935 382.506 68.0444 382.609 71.1166C382.609 71.1166 384.155 70.8095 384.567 69.0682C384.979 67.3268 385.185 60.5672 385.185 60.5672C385.185 60.5672 389.716 60.3624 392.702 58.4163C392.702 58.4163 393.835 59.4401 396.513 59.4401C399.19 59.4401 407.017 56.8797 409.18 58.2106C409.18 58.2106 410.003 60.771 412.372 62.4099C412.372 62.4099 411.411 69.3743 411.531 71.1157C411.651 72.857 412.561 73.8789 412.561 73.8789C412.561 73.8789 414.225 70.5365 417.006 70.2635C417.006 70.2635 419.477 66.4054 419.889 63.1275C419.889 63.1275 421.949 63.0251 421.743 60.8743C421.537 58.7234 420.713 58.0068 420.198 55.856C419.683 53.7051 417.932 51.4519 416.697 51.3495C416.697 51.3495 417.83 49.6082 412.269 45.8184C406.709 42.0305 399.604 41.1081 392.6 42.5423Z" fill="#00557F"/>
<path d="M387.999 89.0474C387.999 89.0474 387.949 92.458 389.545 95.4876C390.987 98.2242 394.942 101.928 394.942 101.928C394.942 101.928 392.085 100.682 389.683 100.75C387.28 100.819 385.083 101.928 385.083 101.928L383.435 91.4646L387.999 89.0474Z" fill="#FFFBDC"/>
<path d="M402.025 91.0703C402.025 91.0703 400.407 99.0082 394.942 101.928C394.942 101.928 398.402 101.398 400.461 101.928C402.521 102.458 403.756 103.755 403.756 103.755C403.756 103.755 406.458 95.5417 406.514 93.0932L402.025 91.0703Z" fill="#FFFBDC"/>
<path d="M377.943 67.9077C377.943 67.9077 380.051 69.6614 380.828 73.2332" stroke="#BF6D60" stroke-miterlimit="10" stroke-linecap="round" stroke-linejoin="round"/>
<path d="M378.766 72.8245C378.766 72.8245 378.887 70.9125 379.891 70.5713" stroke="#BF6D60" stroke-miterlimit="10" stroke-linecap="round" stroke-linejoin="round"/>
<path d="M417.282 72.8247C417.282 72.8247 414.131 74.5319 413.1 77.6041" stroke="#BF6D60" stroke-miterlimit="10" stroke-linecap="round" stroke-linejoin="round"/>
<path d="M415.191 77.1946C415.191 77.1946 415.776 76.3073 415.191 75.2144" stroke="#BF6D60" stroke-miterlimit="10" stroke-linecap="round" stroke-linejoin="round"/>
<path d="M392.134 70.1164C392.01 71.0842 391.462 71.8113 390.91 71.7411C390.358 71.671 390.012 70.8302 390.136 69.8623C390.26 68.8945 390.808 68.1674 391.36 68.2376C391.912 68.3077 392.259 69.1495 392.134 70.1164Z" fill="#00557F"/>
<path d="M388.125 64.2625C388.125 64.2625 391.784 65.2162 393.75 64.0312" stroke="#00557F" stroke-miterlimit="10" stroke-linecap="round" stroke-linejoin="round"/>
<path d="M402.899 70.8789C402.881 71.8543 403.318 72.6525 403.874 72.662C404.429 72.6715 404.894 71.8894 404.913 70.914C404.93 69.9386 404.493 69.1404 403.937 69.1309C403.381 69.1215 402.916 69.9045 402.899 70.8789Z" fill="#00557F"/>
<path d="M407.717 65.6611C407.717 65.6611 403.957 66.0791 402.185 64.625" stroke="#00557F" stroke-miterlimit="10" stroke-linecap="round" stroke-linejoin="round"/>
<path d="M397.282 69.4854C397.282 69.4854 397.003 73.3624 396.51 73.824C396.51 73.824 395.248 73.7908 395.167 75.2449C395.085 76.6991 396.386 77.1114 396.386 77.1114" stroke="#BF6D60" stroke-miterlimit="10" stroke-linecap="round" stroke-linejoin="round"/>
<path d="M394.489 81.8378C394.489 81.8378 396.795 80.3354 398.457 80.6084C400.118 80.8814 400.729 81.8378 400.729 81.8378" stroke="#BF6D60" stroke-miterlimit="10" stroke-linecap="round" stroke-linejoin="round"/>
<path d="M320.685 104.542L323.81 106.145" stroke="#BF6D60" stroke-miterlimit="10" stroke-linecap="round" stroke-linejoin="round"/>
<path d="M312.859 109.559L317.459 113.656" stroke="#BF6D60" stroke-miterlimit="10" stroke-linecap="round" stroke-linejoin="round"/>
<path d="M322.511 113.725C322.511 113.725 326.247 112.359 326.59 112.291" stroke="#BF6D60" stroke-miterlimit="10" stroke-linecap="round" stroke-linejoin="round"/>
<path d="M457.242 114.426L454.492 113.519" stroke="#BF6D60" stroke-miterlimit="10" stroke-linecap="round" stroke-linejoin="round"/>
<path d="M466.644 109.985L461.907 114.426" stroke="#BF6D60" stroke-miterlimit="10" stroke-linecap="round" stroke-linejoin="round"/>
<path d="M458.767 105.12C458.767 105.12 457.19 106.811 455.867 107.58" stroke="#BF6D60" stroke-miterlimit="10" stroke-linecap="round" stroke-linejoin="round"/>
<path d="M355.185 320.407H377.612" stroke="#004560" stroke-miterlimit="10" stroke-linecap="round" stroke-linejoin="round"/>
<path d="M404.626 319.404L426.646 318.358" stroke="#004560" stroke-miterlimit="10" stroke-linecap="round" stroke-linejoin="round"/>
<path d="M371.764 188.968C371.764 188.968 367.625 244.274 366.399 250.078C365.173 255.882 366.399 258.067 366.399 258.067C366.399 258.067 365.712 263.529 365.854 264.622C365.997 265.715 363.251 313.51 363.251 313.51" stroke="#004560" stroke-miterlimit="10" stroke-linecap="round" stroke-linejoin="round"/>
<path d="M408.837 188.968C408.837 188.968 413.506 254.517 414.055 257.794C414.604 261.072 414.055 263.425 414.055 263.425C414.055 263.425 413.994 265.988 414.299 267.899C414.604 269.811 417.625 313.51 417.625 313.51" stroke="#004560" stroke-miterlimit="10" stroke-linecap="round" stroke-linejoin="round"/>
<path d="M390.521 198.254L384.259 192.382" stroke="#004560" stroke-miterlimit="10" stroke-linecap="round" stroke-linejoin="round"/>
<path d="M393.527 198.834L398.539 195.933" stroke="#004560" stroke-miterlimit="10" stroke-linecap="round" stroke-linejoin="round"/>
<path d="M372.038 116.455L384.946 117.671C384.946 117.671 384.808 132.023 377.257 132.023C369.705 132.023 372.038 116.455 372.038 116.455Z" fill="#F2BD70"/>
<path d="M416.086 52.1689L413.1 53.8743" stroke="#004560" stroke-miterlimit="10" stroke-linecap="round" stroke-linejoin="round"/>
<path d="M382.61 60.3295C382.61 60.3295 389.614 61.285 392.703 58.4176C392.703 58.4176 395.236 60.4319 399.909 58.9465C404.581 57.4611 408.493 57.8024 409.181 58.2128C409.181 58.2128 410.76 62.378 413.78 62.7875C416.801 63.197 417.281 62.1733 417.281 62.1733" stroke="#004560" stroke-miterlimit="10" stroke-linecap="round" stroke-linejoin="round"/>
<path d="M419.822 61.4902L418.998 62.4457" stroke="#004560" stroke-miterlimit="10" stroke-linecap="round" stroke-linejoin="round"/>
<path d="M379.891 58.2805C379.891 58.2805 380.346 56.4368 381.307 55.686" stroke="#004560" stroke-miterlimit="10" stroke-linecap="round" stroke-linejoin="round"/>
<path d="M414.592 50.0868C414.592 50.0868 413.918 48.7208 412.476 48.1748" stroke="#004560" stroke-miterlimit="10" stroke-linecap="round" stroke-linejoin="round"/>
<path d="M385.357 49.1315C385.357 49.1315 388.652 46.3322 388.858 45.8545" stroke="#004560" stroke-miterlimit="10" stroke-linecap="round" stroke-linejoin="round"/>
<path d="M393.116 56.3689C393.116 56.3689 394.214 54.8664 395.587 54.3887" stroke="#004560" stroke-miterlimit="10" stroke-linecap="round" stroke-linejoin="round"/>
<path d="M49.2338 34.0643C47.0559 33.8055 45.6234 31.6291 46.3191 29.5607C47.1417 27.1141 49.1261 24.1812 53.7897 22.5868C59.7438 20.5516 66.3995 22.602 68.3238 28.1682C69.6611 32.0367 67.5814 35.3961 64.3303 38.3167C63.1856 39.3708 63.5277 40.4893 63.9776 41.7918C64.3998 43.0127 63.746 44.3426 62.5184 44.7626L60.4148 45.482C59.1872 45.902 57.85 45.2517 57.4278 44.0308L56.7043 41.9378C56.1039 40.2012 55.6921 38.7527 57.0827 36.9972C58.9728 34.6302 61.1935 33.7382 60.2252 30.9352C59.5704 29.0403 57.6775 28.1862 55.8913 28.7967C54.272 29.3502 53.3875 30.5029 52.9519 31.7333C52.4048 33.2832 50.8712 34.2596 49.2338 34.0643ZM68.3448 50.3212C69.2045 52.8076 67.8759 55.513 65.3348 56.3823C62.8339 57.2373 60.1137 55.9159 59.2539 53.4285C58.3809 50.9013 59.7095 48.196 62.2105 47.3419C64.7515 46.4726 67.4717 47.794 68.3448 50.3212Z" fill="#FF9400"/>
<path d="M96.622 331.021C96.0415 327.506 94.2706 316.9 92.1232 305.157C89.4907 290.757 82.47 272.538 82.47 272.538L66.9799 284.648L85.6315 334.776C85.1531 336.268 84.321 338.461 83.2382 339.74C81.4835 341.813 80.8249 342.655 80.8249 342.655C80.8249 342.655 84.8833 343.887 87.7351 343.887C90.5868 343.887 98.0459 337.341 98.3747 336.141C98.5597 335.471 97.5512 333.041 96.622 331.021Z" fill="#D88471"/>
<path d="M82.3481 340.776C82.3481 340.776 81.2653 342.03 77.9742 344.648C74.6831 347.266 73.4764 349.012 73.4764 350.102C73.4764 351.193 86.3102 351.589 89.0523 350.846C91.7945 350.102 99.8016 342.03 100.679 340.284C101.557 338.539 97.4207 332.835 97.4207 332.835C97.4207 332.835 95.8528 336.138 94.7568 337.775C93.6597 339.411 89.5899 341.216 87.1394 342.031C81.5665 343.885 82.3481 340.776 82.3481 340.776Z" fill="#004560"/>
<path d="M57.4392 182.354C57.4392 182.354 56.1459 200.077 56.4337 224.089C56.7215 248.101 64.2312 272.537 64.2312 272.537L83.4518 266.682L82.0145 182.354H57.4392Z" fill="#004560"/>
<path d="M67.2116 118.321C67.2116 118.321 58.3018 135.044 55.7865 141.476C53.2712 147.908 60.2824 156.087 60.2824 156.087L65.4874 151.195C65.4874 151.195 68.361 123.896 67.2116 118.321Z" fill="#D88471"/>
<path d="M67.2115 118.321C67.2115 118.321 82.5892 109.889 95.3791 107.744C108.169 105.6 112.337 113.033 112.337 113.033L103.399 162.344L107.882 182.354H57.4392L63.4753 153.91C63.4753 153.91 62.7557 129.47 67.2115 118.321Z" fill="#FFD07F"/>
<path d="M64.8793 74.1488C64.8793 74.1488 64.8745 90.7289 65.6313 95.4003C66.3881 100.072 71.7303 104.021 77.083 105.682C82.4348 107.343 91.7439 100.911 93.3966 97.2175C95.0503 93.5244 96.2293 75.2834 96.2293 75.2834C96.2293 75.2834 71.9238 62.222 64.8793 74.1488Z" fill="#FFA78C"/>
<path d="M78.7376 104.07C78.7376 104.07 79.6336 109.821 78.4955 114.849L93.4128 109.704L93.7655 96.1328L78.7376 104.07Z" fill="#FFA78C"/>
<path d="M92.9058 84.9943C92.9058 84.9943 95.5573 79.8992 98.8494 81.6225C102.142 83.3458 100.532 90.023 98.39 92.2905C96.2484 94.5579 93.0602 92.4677 93.0602 92.4677L92.9058 84.9943Z" fill="#FFA78C"/>
<path d="M78.9445 105.947C78.9445 105.947 85.6211 104.841 89.6699 101.364C89.6699 101.364 84.9691 109.775 79.0255 110.803L78.9445 105.947Z" fill="#D88471"/>
<path d="M75.2235 71.0096C75.2235 71.0096 77.1784 75.1994 82.4882 79.2755C87.7971 83.3525 91.8774 83.7127 91.8774 83.7127C91.8774 83.7127 90.1999 88.7235 93.0182 90.443C93.0182 90.443 94.1363 80.7619 97.9993 81.3211C101.863 81.8804 100.263 93.2081 94.3974 93.0896C94.3974 93.0896 92.7981 96.578 93.6349 101.112C93.6349 101.112 105.496 92.5161 107.085 80.6822C108.675 68.8483 100.418 65.3249 100.418 65.3249C100.418 65.3249 97.4884 59.5435 87.6427 57.751C77.796 55.9575 72.7111 61.5531 72.7111 61.5531C72.7111 61.5531 67.7873 59.9634 63.4906 64.8898C59.1939 69.8171 61.4509 74.8136 61.4509 74.8136C61.4509 74.8136 58.2608 78.3096 59.4684 82.4454C60.677 86.5812 65.089 87.5386 65.089 87.5386C65.089 87.5386 65.8982 75.9227 67.7568 72.7585C69.6173 69.5943 75.2235 71.0096 75.2235 71.0096Z" fill="#00557F"/>
<path d="M73.2058 84.4785C73.2058 84.4785 73.5165 87.8351 72.1764 89.9082C70.8373 91.9813 73.7005 92.9397 73.7005 92.9397" stroke="#BF6D60" stroke-miterlimit="10" stroke-linecap="round" stroke-linejoin="round"/>
<path d="M66.289 80.5407C66.289 80.5407 68.2543 78.1955 70.497 79.933" stroke="#00557F" stroke-miterlimit="10" stroke-linecap="round" stroke-linejoin="round"/>
<path d="M78.0286 80.5898C78.0286 80.5898 80.0959 81.7188 82.9591 81.9833" stroke="#00557F" stroke-miterlimit="10" stroke-linecap="round" stroke-linejoin="round"/>
<path d="M98.0898 84.2803C98.0898 84.2803 95.2819 85.5666 94.8264 89.5991" stroke="#BF6D60" stroke-miterlimit="10" stroke-linecap="round" stroke-linejoin="round"/>
<path d="M110.756 113.604C110.756 113.604 115.211 114.176 116.504 123.038C117.798 131.899 109.162 154.617 106.157 159.485C101.127 167.632 56.4328 160.914 56.4328 160.914L58.8757 151.052L94.8035 146.621C94.8035 146.621 99.4023 126.754 102.133 119.465C104.865 112.175 110.756 113.604 110.756 113.604Z" fill="#FFA78C"/>
<path d="M96.7802 88.8637C96.7802 88.8637 97.068 87.8551 95.8823 86.7773" stroke="#BF6D60" stroke-miterlimit="10" stroke-linecap="round" stroke-linejoin="round"/>
<path d="M80.9841 86.2214C80.9374 87.1504 80.4704 87.8812 79.9405 87.8547C79.4105 87.8281 79.0198 87.0546 79.0665 86.1257C79.1132 85.1967 79.5802 84.4659 80.1101 84.4924C80.6401 84.5189 81.0309 85.2924 80.9841 86.2214Z" fill="#00557F"/>
<path d="M70.1577 85.6823C70.111 86.6104 69.644 87.3422 69.1141 87.3156C68.5851 87.2891 68.1933 86.5156 68.24 85.5866C68.2867 84.6586 68.7538 83.9268 69.2837 83.9533C69.8127 83.9799 70.2044 84.7543 70.1577 85.6823Z" fill="#00557F"/>
<path d="M73.4392 97.1484C73.4392 97.1484 75.2254 96.3891 77.6453 97.8537" stroke="#BF6D60" stroke-miterlimit="10" stroke-linecap="round" stroke-linejoin="round"/>
<path d="M109.245 67.3061C110.49 63.4438 108.351 59.3094 104.467 58.0716C100.584 56.8337 96.4267 58.9613 95.1821 62.8236C93.9375 66.6859 96.0767 70.8203 99.9601 72.0582C103.844 73.296 108.001 71.1684 109.245 67.3061Z" fill="#00557F"/>
<path d="M59.1959 109.46C59.1959 109.46 62.7701 104.957 64.1997 104.529C65.6304 104.1 70.5218 106.61 70.8782 107.357C71.2347 108.103 70.3721 109.46 70.3721 109.46C70.3721 109.46 70.1567 112.033 69.2942 112.461C68.4316 112.89 68.4316 112.89 68.4316 112.89C68.4316 112.89 67.0667 116.749 64.6954 117.392C64.6954 117.392 64.1921 121.895 61.3184 122.538L55.7856 117.893C55.7856 117.893 56.4985 114.105 59.1959 109.46Z" fill="#FFA78C"/>
<path d="M63.1151 105.637C63.1151 105.637 65.2348 102.992 66.8513 102.171C68.4678 101.349 72.8512 102.385 73.3182 103.028C73.7852 103.671 72.8512 104.101 71.1622 103.957C69.4733 103.814 68.8986 103.752 68.8986 103.752L67.6767 105.951L63.1151 105.637Z" fill="#FFA78C"/>
<path d="M55.7865 117.893C55.7865 117.893 45.3193 146.335 45.5109 153.768C45.7025 161.2 50.4929 162.344 53.3675 162.153C56.2421 161.963 60.148 157.764 61.7988 152.625C63.4496 147.485 61.7988 121.18 61.7988 121.18L55.7865 117.893Z" fill="#FFA78C"/>
<path d="M95.3314 148.051C95.3314 148.051 98.0145 150.72 99.3555 153.768" stroke="#BF6D60" stroke-miterlimit="10" stroke-linecap="round" stroke-linejoin="round"/>
<path d="M58.8279 122.537C58.8279 122.537 60.4568 123.526 61.8674 122.356" stroke="#BF6D60" stroke-miterlimit="10" stroke-linecap="round" stroke-linejoin="round"/>
<path d="M64.6963 117.393C64.6963 117.393 63.8576 117.035 64.1454 115.939L64.8793 114.272" stroke="#BF6D60" stroke-miterlimit="10" stroke-linecap="round" stroke-linejoin="round"/>
<path d="M65.535 111.271C65.535 111.271 68.0265 111.842 68.4335 112.891" stroke="#BF6D60" stroke-miterlimit="10" stroke-linecap="round" stroke-linejoin="round"/>
<path d="M66.7798 108.317C66.7798 108.317 69.0311 108.174 70.3731 109.46" stroke="#BF6D60" stroke-miterlimit="10" stroke-linecap="round" stroke-linejoin="round"/>
<path d="M81.5551 290.331L61.5339 291.358L54.6209 337.866C52.4792 338.849 50.1317 341.584 45.1516 343.508C41.2362 345.021 42.1998 345.674 41.3744 347.213C40.549 348.753 41.3744 350.498 41.3744 350.498H67.6138C68.5364 350.487 69.2808 349.746 69.2875 348.829C69.3085 346.186 69.3399 341.01 69.2999 338.05C69.826 335.952 71.9276 327.71 74.949 317.634C78.4584 305.932 81.5551 290.331 81.5551 290.331Z" fill="#FFA78C"/>
<path d="M50.329 340.875C50.329 340.875 52.1552 343.578 59.8678 343.102C67.5805 342.625 69.4048 340.875 69.4048 340.875C69.4048 340.875 70.3808 349.965 69.9566 350.869C69.5325 351.773 60.2834 351.253 59.011 351.227C57.7386 351.202 40.6834 352.015 38.5618 351.227C36.4401 350.44 35.8463 348.914 36.525 347.866C37.2026 346.818 47.401 342.299 50.329 340.875Z" fill="#00557F"/>
<path d="M72.7597 115.536C72.7597 115.536 71.8123 118.226 80.5533 118.321C89.2944 118.417 101.558 109.46 101.558 109.46L94.0848 108.885L78.4946 112.889L72.7597 115.536Z" fill="#FFA78C"/>
<path d="M102.325 89.5991C102.325 89.5991 102.996 99.8367 108.457 102.885C108.457 102.885 113.727 103.172 115.163 108.317C116.6 113.462 110.852 116.988 110.852 116.988C110.852 116.988 110.373 123.181 102.709 123.943C95.0436 124.706 91.4027 114.605 91.4027 109.079C91.4027 103.553 98.1098 91.4627 102.325 89.5991Z" fill="#00557F"/>
<path d="M107.872 182.354C107.872 182.354 109.42 197.134 102.609 220.228C95.7975 243.321 83.1029 291.357 83.1029 291.357H59.2625L71.9562 196.518L70.4083 182.354L107.872 182.354Z" fill="#00557F"/>
<path d="M81.78 189.275L71.9572 196.519" stroke="#004560" stroke-miterlimit="10" stroke-linecap="round" stroke-linejoin="round"/>
<path d="M103.805 183.775C103.805 183.775 102.984 203.697 98.8799 219.615C94.7758 235.534 80.0015 287.166 80.0015 287.166" stroke="#004560" stroke-miterlimit="10" stroke-linecap="round" stroke-linejoin="round"/>
<path d="M59.824 287.166C59.824 287.166 79.0903 287.676 84.2143 287.166" stroke="#004560" stroke-miterlimit="10" stroke-linecap="round" stroke-linejoin="round"/>
<path d="M71.8199 117.893C71.8199 117.893 71.9295 119.886 78.4965 120.295C85.0635 120.703 91.4036 118.322 91.4036 118.322" stroke="#BF6D60" stroke-miterlimit="10" stroke-linecap="round" stroke-linejoin="round"/>
<path d="M74.4114 67.959C74.4114 67.959 77.7883 80.6773 91.8774 83.7135" stroke="#004560" stroke-miterlimit="10" stroke-linecap="round" stroke-linejoin="round"/>
<path d="M72.7121 61.5527L74.8194 62.9898" stroke="#004560" stroke-miterlimit="10" stroke-linecap="round" stroke-linejoin="round"/>
<path d="M61.4519 74.8145C61.4519 74.8145 62.9168 75.9823 63.7966 76.3217" stroke="#004560" stroke-miterlimit="10" stroke-linecap="round" stroke-linejoin="round"/>
<path d="M96.4581 61.5527C96.4581 61.5527 102.801 65.5549 105.115 70.2945" stroke="#004560" stroke-miterlimit="10" stroke-linecap="round" stroke-linejoin="round"/>
<path d="M94.8264 71.0396C94.8264 71.0396 95.9873 71.7846 96.2284 73.1382" stroke="#004560" stroke-miterlimit="10" stroke-linecap="round" stroke-linejoin="round"/>
<path d="M92.9058 64.2012L94.4946 65.4193" stroke="#004560" stroke-miterlimit="10" stroke-linecap="round" stroke-linejoin="round"/>
<path d="M101.559 91.9609C101.559 91.9609 102.325 98.1414 104.094 101.111" stroke="#004560" stroke-miterlimit="10" stroke-linecap="round" stroke-linejoin="round"/>
<path d="M93.6359 101.112L95.1761 99.7485" stroke="#004560" stroke-miterlimit="10" stroke-linecap="round" stroke-linejoin="round"/>
<path d="M99.9417 95.0762V96.9521" stroke="#004560" stroke-miterlimit="10" stroke-linecap="round" stroke-linejoin="round"/>
<path d="M108.111 111.271C108.111 111.271 110.598 113.44 110.852 116.987" stroke="#004560" stroke-miterlimit="10" stroke-linecap="round" stroke-linejoin="round"/>
<path d="M104.911 117.893C104.911 117.893 105.183 118.977 104.911 119.925" stroke="#004560" stroke-miterlimit="10" stroke-linecap="round" stroke-linejoin="round"/>
<path d="M95.8823 109.46C95.8823 109.46 96.0615 112.192 97.0823 114.128" stroke="#004560" stroke-miterlimit="10" stroke-linecap="round" stroke-linejoin="round"/>
<path d="M102.46 105.491C102.46 105.491 103.753 106.636 104.093 107.357" stroke="#004560" stroke-miterlimit="10" stroke-linecap="round" stroke-linejoin="round"/>
<path d="M80.5534 66.436C80.5534 66.436 81.049 68.8731 82.2747 69.6865" stroke="#004560" stroke-miterlimit="10" stroke-linecap="round" stroke-linejoin="round"/>
<path d="M88.6063 76.998C88.6063 76.998 89.627 78.1185 90.5468 78.5744" stroke="#004560" stroke-miterlimit="10" stroke-linecap="round" stroke-linejoin="round"/>
<path d="M59.2625 180.323C59.2625 180.323 81.0242 180.458 86.5341 180.323C92.0441 180.187 104.571 180.554 104.571 180.554" stroke="#BF6D60" stroke-miterlimit="10" stroke-linecap="round" stroke-linejoin="round"/>
<path d="M114.964 57.4693C112.736 55.6768 112.674 52.2785 114.89 50.4727C117.513 48.3361 121.757 46.4639 128.03 47.9275C136.039 49.7949 141.967 56.6674 140.201 64.155C138.974 69.3582 134.325 71.6351 128.686 72.6172C126.682 72.9907 126.278 74.4647 125.866 76.2174C125.479 77.8602 123.826 78.8792 122.174 78.4934L119.344 77.8336C117.693 77.4488 116.668 75.8051 117.056 74.1623L117.719 71.3479C118.27 69.0113 118.828 67.1249 121.594 66.1457C125.34 64.8347 128.42 65.3855 129.308 61.6156C129.91 59.0666 128.413 56.8124 126.011 56.2522C123.833 55.7441 122.047 56.4067 120.705 57.4665C119.017 58.7974 116.638 58.8163 114.964 57.4693ZM124.73 88.6694C123.942 92.0146 120.58 94.0877 117.163 93.2905C113.799 92.5056 111.715 89.1623 112.504 85.818C113.305 82.4197 116.667 80.3456 120.031 81.1305C123.448 81.9268 125.532 85.2701 124.73 88.6694Z" fill="#FF9400"/>
<path d="M513.652 67.2524C513.652 67.2524 510.193 83.5653 512.211 92.7403C514.229 101.915 520.86 100.768 521.868 100.481C522.877 100.195 523.739 97.5093 523.739 97.5093C523.739 97.5093 525.023 99.9076 527.914 99.7644C530.804 99.6213 533.832 97.7738 533.832 97.7738C533.832 97.7738 542.921 99.9076 548.25 98.7615C553.579 97.6145 554.338 95.3205 554.338 95.3205C554.338 95.3205 557.491 96.7538 561.084 93.6C564.678 90.4463 559.629 77.7289 557.685 72.6907C555.742 67.6534 513.652 67.2524 513.652 67.2524Z" fill="#00557F"/>
<path d="M531.237 334.099L532.39 347.288L543.057 345.711V333.669L531.237 334.099Z" fill="#FFA78C"/>
<path d="M574.624 333.669L577.651 345.568H587.308L586.155 333.669H574.624Z" fill="#FFA78C"/>
<path d="M543.057 344.135C543.057 344.135 551.561 354.886 555.597 357.323C559.633 359.76 557.759 362.054 556.174 362.627C554.588 363.2 550.012 362.829 541.327 362.627C540.555 362.609 534.688 362.039 531.627 361.603C530.617 361.459 529.928 360.521 530.091 359.519L532.28 346.032L541.508 344.406L543.057 344.135Z" fill="#00557F"/>
<path d="M576.931 342.734L575.588 359.126C575.533 359.795 576.026 360.385 576.699 360.448C580.401 360.801 591.41 361.838 592.823 361.838C594.525 361.838 603.228 361.838 605.12 360.763C607.012 359.688 606.445 357.752 605.12 356.462C603.796 355.172 596.417 351.087 596.417 351.087L586.995 342.331L576.931 342.734Z" fill="#00557F"/>
<path d="M561.427 110.021C561.427 110.021 554.338 102.335 537.315 102.335C524.344 102.335 513.204 111.467 513.204 111.467L522.502 154.693L518.018 174.703H568.461L563.648 152.022C563.648 152.022 568.81 122.076 561.427 110.021Z" fill="#FFD07F"/>
<path d="M554.565 62.8669C554.565 62.8669 557.579 79.1741 557.684 83.9042C557.788 88.6344 553.25 93.4783 548.288 96.0737C543.326 98.6691 533.001 94.0139 530.705 90.6781C528.409 87.3424 523.937 69.6133 523.937 69.6133C523.937 69.6133 545.471 52.4009 554.565 62.8669Z" fill="#FFA78C"/>
<path d="M546.366 94.7856C546.366 94.7856 546.529 100.603 548.561 105.344L532.956 102.962L530.145 89.6772L546.366 94.7856Z" fill="#FFA78C"/>
<path d="M528.968 78.5665C528.968 78.5665 525.435 74.0316 522.509 76.318C519.584 78.6044 522.38 84.8825 524.898 86.7281C527.416 88.5737 530.172 85.9451 530.172 85.9451L528.968 78.5665Z" fill="#FFA78C"/>
<path d="M546.503 96.6701C546.503 96.6701 539.736 96.781 535.122 94.0889C535.122 94.0889 541.273 101.517 547.305 101.461L546.503 96.6701Z" fill="#D88471"/>
<path d="M547.814 60.988C547.814 60.988 548.639 66.7533 540.502 70.5706C534.437 73.4172 532.895 76.4875 532.895 76.4875C532.895 76.4875 534.48 82.2756 529.846 83.9458C529.846 83.9458 526.988 74.6249 523.29 75.8685C519.592 77.1122 523.222 87.9669 528.969 86.7972C528.969 86.7972 531.175 89.9405 531.175 94.5503C531.175 94.5503 517.949 88.2257 514.236 76.8715C510.524 65.5172 518.005 60.569 518.005 60.569C518.005 60.569 519.837 54.3573 529.196 50.8253C538.554 47.2933 549.126 49.4356 554.247 53.5098C559.368 57.584 558.055 62.9047 558.055 62.9047C558.055 62.9047 561.828 65.7703 561.39 70.0549C560.953 74.3395 556.787 76.0733 556.787 76.0733C556.787 76.0733 553.881 64.7939 551.479 62.0156C549.078 59.2372 547.814 60.988 547.814 60.988Z" fill="#00557F"/>
<path d="M548.25 74.522C548.25 74.522 548.554 77.8795 550.248 79.6778C551.942 81.476 549.3 82.9329 549.3 82.9329" stroke="#BF6D60" stroke-miterlimit="10" stroke-linecap="round" stroke-linejoin="round"/>
<path d="M554.338 69.4067C554.338 69.4067 551.979 67.4531 550.089 69.565" stroke="#00557F" stroke-miterlimit="10" stroke-linecap="round" stroke-linejoin="round"/>
<path d="M542.8 71.563C542.8 71.563 540.971 73.0455 538.204 73.819" stroke="#00557F" stroke-miterlimit="10" stroke-linecap="round" stroke-linejoin="round"/>
<path d="M523.739 78.7959C523.739 78.7959 526.735 79.5571 527.914 83.4407" stroke="#BF6D60" stroke-miterlimit="10" stroke-linecap="round" stroke-linejoin="round"/>
<path d="M525.86 83.0684C525.86 83.0684 525.394 82.128 526.364 80.855" stroke="#BF6D60" stroke-miterlimit="10" stroke-linecap="round" stroke-linejoin="round"/>
<path d="M540.916 77.633C541.131 78.5383 541.722 79.1734 542.239 79.0521C542.755 78.9307 543 78.0994 542.785 77.1941C542.571 76.2898 541.979 75.6538 541.462 75.7751C540.946 75.8974 540.702 76.7287 540.916 77.633Z" fill="#00557F"/>
<path d="M551.467 75.1589C551.682 76.0633 552.274 76.6993 552.79 76.578C553.306 76.4566 553.551 75.6253 553.336 74.72C553.122 73.8148 552.53 73.1797 552.013 73.301C551.497 73.4223 551.253 74.2546 551.467 75.1589Z" fill="#00557F"/>
<path d="M550.321 87.0259C550.321 87.0259 548.427 86.6002 546.312 88.4752" stroke="#BF6D60" stroke-miterlimit="10" stroke-linecap="round" stroke-linejoin="round"/>
<path d="M594.171 104.619C591.944 97.5222 577.811 71.0523 577.811 71.0523C577.811 71.0523 576.451 67.4445 572.987 63.3334C572.987 63.3334 569.049 59.8412 567.412 59.3881C566.512 58.6952 565.205 57.7852 564.179 57.4714C562.443 56.9396 558.307 58.7151 557.959 59.4289C557.611 60.1427 558.605 60.4043 560.243 59.973C561.882 59.5417 562.437 59.3815 562.437 59.3815L563.695 60.9342C562.382 61.8423 561.225 62.8736 561.114 63.2727C560.893 64.068 561.978 65.2577 561.978 65.2577C561.978 65.2577 562.638 67.7545 563.561 68.0285C564.485 68.3024 564.485 68.3024 564.485 68.3024C564.485 68.3024 566.501 71.8685 568.948 72.0941C568.948 72.0941 570.062 75.8716 572.597 76.4953C573.15 81.1771 575.302 98.6455 577.346 104.837L568.461 106.649C568.981 110.181 573.131 123.712 573.131 123.712C577.228 123.124 597.308 114.621 594.171 104.619Z" fill="#FFA78C"/>
<path d="M583.401 277.33C583.401 277.33 580.749 204.538 568.461 174.704H518.018C518.018 174.704 512.846 188.737 513.969 217.982C514.873 241.486 520.759 267.474 523.037 276.778C522.791 285.964 522.843 311.642 529.796 334.707H544.498L543.633 280.341L547.863 212.402L560.726 273.275L560.667 273.265C560.667 273.265 562.66 310.709 574.334 334.707H587.307L583.401 277.33Z" fill="#00557F"/>
<path d="M575.624 76.1504C575.624 76.1504 574.191 77.4045 572.599 76.4945" stroke="#BF6D60" stroke-miterlimit="10" stroke-linecap="round" stroke-linejoin="round"/>
<path d="M523.037 176.175C523.037 176.175 516.968 200.545 518.986 224.342C521.003 248.139 526.048 271.363 526.048 271.363" stroke="#004560" stroke-miterlimit="10" stroke-linecap="round" stroke-linejoin="round"/>
<path d="M568.949 72.0922C568.949 72.0922 569.713 71.5964 569.239 70.566L568.227 69.0493" stroke="#BF6D60" stroke-miterlimit="10" stroke-linecap="round" stroke-linejoin="round"/>
<path d="M567.058 66.2065C567.058 66.2065 564.704 67.1981 564.486 68.3005" stroke="#BF6D60" stroke-miterlimit="10" stroke-linecap="round" stroke-linejoin="round"/>
<path d="M565.318 63.5117C565.318 63.5117 563.075 63.7582 561.978 65.2559" stroke="#BF6D60" stroke-miterlimit="10" stroke-linecap="round" stroke-linejoin="round"/>
<path d="M552.401 104.759L569.661 105.344L574.111 123.71C574.111 123.71 567.059 127.811 561.085 127.667C552.187 127.454 552.401 104.759 552.401 104.759Z" fill="#FFD07F"/>
<path d="M533.946 181.115C533.946 181.115 535.196 181.567 536.277 181.85C537.357 182.132 538.609 182.189 538.097 181.001C537.585 179.814 534.686 178.341 531.729 178.795C528.774 179.249 527.806 179.515 527.804 179.516L522.533 180.087L506.768 158.042L512.27 143.688L498.126 133.636C498.126 133.636 492.895 145.149 489.938 156.911C486.982 168.673 515.714 187.069 515.714 187.069C515.714 187.069 517.685 189.18 521.172 189.934C523.781 190.498 526.899 190.218 528.303 190.041C528.322 190.038 528.339 190.045 528.357 190.042L528.617 189.999C528.897 189.96 529.056 189.933 529.056 189.933V189.927L532.492 189.363C532.492 189.363 533.743 189.815 534.824 190.099C535.905 190.381 537.155 190.438 536.643 189.25C536.198 188.218 533.947 186.973 531.424 186.964L533.213 186.67C533.213 186.67 534.463 187.122 535.544 187.404C536.624 187.687 537.876 187.744 537.364 186.556C536.862 185.389 534.052 183.958 531.149 184.339L533.719 183.917C533.719 183.917 534.97 184.369 536.05 184.652C537.13 184.934 538.382 184.991 537.87 183.803C537.358 182.616 534.459 181.143 531.502 181.598C530.446 181.76 529.652 181.897 529.057 182.008V181.913L533.946 181.115Z" fill="#FFA78C"/>
<path d="M513.204 111.468C513.204 111.468 501.581 120.034 497.04 134.442L513.969 145.193C513.969 145.193 521.358 134.692 523.739 126.879C526.121 119.066 518.233 109.675 513.204 111.468Z" fill="#FFD07F"/>
<path d="M522.793 105.744C522.793 105.744 529.018 109.657 539.353 109.371C549.688 109.084 552.401 104.759 552.401 104.759L547.735 103.046L532.667 101.599L522.793 105.744Z" fill="#FFA78C"/>
<path d="M518.952 137.261C518.952 137.261 522.274 130.154 522.792 122.414" stroke="#BF6D60" stroke-miterlimit="10" stroke-linecap="round" stroke-linejoin="round"/>
<path d="M561.084 112.206C561.084 112.206 566.145 122.918 565.772 127.075" stroke="#BF6D60" stroke-miterlimit="10" stroke-linecap="round" stroke-linejoin="round"/>
<path d="M559.633 150.37L548.25 152.95" stroke="#BF6D60" stroke-miterlimit="10" stroke-linecap="round" stroke-linejoin="round"/>
<path d="M525.716 154.671L527.915 155.921L525.716 156.946" stroke="#BF6D60" stroke-miterlimit="10" stroke-linecap="round" stroke-linejoin="round"/>
<path d="M524.176 109.385C524.176 109.385 536.01 113.409 544.283 111.245C552.554 109.081 554.338 106.35 554.338 106.35" stroke="#BF6D60" stroke-miterlimit="10" stroke-linecap="round" stroke-linejoin="round"/>
<path d="M506.769 158.044C506.769 158.044 503.418 160.476 499.31 160.692" stroke="#BF6D60" stroke-miterlimit="10" stroke-linecap="round" stroke-linejoin="round"/>
<path d="M577.347 104.835C577.347 104.835 579.958 106.075 585.796 107.579" stroke="#BF6D60" stroke-miterlimit="10" stroke-linecap="round" stroke-linejoin="round"/>
<path d="M534.12 277.24C534.12 277.24 537.868 279.677 542.48 277.24" stroke="#004560" stroke-miterlimit="10" stroke-linecap="round" stroke-linejoin="round"/>
<path d="M581.543 275.806C581.543 275.806 576.065 276.523 573.327 274.085" stroke="#004560" stroke-miterlimit="10" stroke-linecap="round" stroke-linejoin="round"/>
<path d="M560.727 273.275L565.543 274.995" stroke="#004560" stroke-miterlimit="10" stroke-linecap="round" stroke-linejoin="round"/>
<path d="M523.036 276.777L526.048 279.533" stroke="#004560" stroke-miterlimit="10" stroke-linecap="round" stroke-linejoin="round"/>
<path d="M547.864 212.402C547.864 212.402 548.967 201.404 552.138 197.39C555.309 193.377 559.633 192.23 559.633 192.23" stroke="#004560" stroke-miterlimit="10" stroke-linecap="round" stroke-linejoin="round"/>
<path d="M530.275 358.387C530.275 358.387 536.211 359.168 544.426 359.67C552.642 360.171 556.823 359.67 556.823 359.67" stroke="#004560" stroke-miterlimit="10" stroke-linecap="round" stroke-linejoin="round"/>
<path d="M576.065 358.021C576.065 358.021 590.119 359.255 595.453 359.139C600.786 359.023 604.966 358.021 604.966 358.021" stroke="#004560" stroke-miterlimit="10" stroke-linecap="round" stroke-linejoin="round"/>
<path d="M534.12 334.708C534.12 334.708 523.887 298.887 526.048 283.978" stroke="#004560" stroke-miterlimit="10" stroke-linecap="round" stroke-linejoin="round"/>
<path d="M550.559 202.316C550.559 202.316 562.888 265.055 563.134 271.362" stroke="#004560" stroke-miterlimit="10" stroke-linecap="round" stroke-linejoin="round"/>
<path d="M565.543 278.323C565.543 278.323 566.984 318.06 577.435 334.707" stroke="#004560" stroke-miterlimit="10" stroke-linecap="round" stroke-linejoin="round"/>
<path d="M518.006 60.5703C518.006 60.5703 522.157 60.2243 525.184 60.5703" stroke="#004560" stroke-miterlimit="10" stroke-linecap="round" stroke-linejoin="round"/>
<path d="M547.237 58.8369C547.237 58.8369 549.111 63.1244 545.651 67.2526C542.192 71.3808 534.841 71.0576 532.895 76.4873C532.895 76.4873 534.076 83.4659 529.846 83.9456" stroke="#004560" stroke-miterlimit="10" stroke-linecap="round" stroke-linejoin="round"/>
<path d="M531.093 74.9395C531.093 74.9395 531.166 71.5962 532.103 69.9468" stroke="#004560" stroke-miterlimit="10" stroke-linecap="round" stroke-linejoin="round"/>
<path d="M555.813 61.9199L558.056 62.9058" stroke="#004560" stroke-miterlimit="10" stroke-linecap="round" stroke-linejoin="round"/>
<path d="M515.378 79.6602C515.378 79.6602 515.014 82.9931 515.378 85.4302" stroke="#004560" stroke-miterlimit="10" stroke-linecap="round" stroke-linejoin="round"/>
<path d="M519.346 90.541C519.346 90.541 519.13 93.1421 519.346 94.0891" stroke="#004560" stroke-miterlimit="10" stroke-linecap="round" stroke-linejoin="round"/>
<path d="M526.364 91.6533V93.7444" stroke="#004560" stroke-miterlimit="10" stroke-linecap="round" stroke-linejoin="round"/>
<path d="M548.25 52.7451C548.25 52.7451 551.633 53.8201 553.147 55.5405" stroke="#004560" stroke-miterlimit="10" stroke-linecap="round" stroke-linejoin="round"/>
<path d="M557.685 89.4438L557.889 91.6535" stroke="#004560" stroke-miterlimit="10" stroke-linecap="round" stroke-linejoin="round"/>
<path d="M519.346 66.2065C519.346 66.2065 518.482 68.5858 518.842 70.5926" stroke="#004560" stroke-miterlimit="10" stroke-linecap="round" stroke-linejoin="round"/>
<path d="M538.204 58.1924C538.204 58.1924 538.132 59.9129 537.315 61.131" stroke="#004560" stroke-miterlimit="10" stroke-linecap="round" stroke-linejoin="round"/>
<path d="M524.535 55.8989C524.535 55.8989 527.017 53.5338 530.173 52.7451" stroke="#004560" stroke-miterlimit="10" stroke-linecap="round" stroke-linejoin="round"/>
<path d="M604.165 6.08252H565.895C561.473 6.08252 557.888 9.64767 557.888 14.046V43.2763C557.888 47.6747 561.473 51.2398 565.895 51.2398H578.504L577.213 56.7719C576.845 58.3493 578.599 59.5683 579.961 58.682L591.399 51.2408H604.164C608.587 51.2408 612.171 47.6756 612.171 43.2772V14.046C612.172 9.64861 608.588 6.08252 604.165 6.08252Z" fill="#FF9400"/>
<path d="M576.492 19.6846C574.527 18.7167 573.908 16.1896 575.259 14.471C576.857 12.4386 579.712 10.3333 584.643 10.3807C590.939 10.4413 596.523 14.5866 596.466 20.4723C596.426 24.5626 593.338 27.0376 589.292 28.7107C587.858 29.3231 587.805 30.4919 587.791 31.8692C587.779 33.1603 586.716 34.1964 585.418 34.184L583.194 34.1622C581.896 34.1499 580.854 33.093 580.866 31.8019L580.888 29.5894C580.906 27.7533 581.004 26.2508 582.905 25.0584C585.481 23.4554 587.874 23.353 587.903 20.3898C587.923 18.3859 586.426 16.9517 584.537 16.9337C582.825 16.9176 581.603 17.7091 580.778 18.7243C579.742 20.0012 577.97 20.4126 576.492 19.6846ZM589.042 41.3579C589.016 43.9875 586.856 46.0957 584.169 46.0701C581.525 46.0445 579.405 43.8946 579.431 41.265C579.456 38.5938 581.618 36.4847 584.262 36.5103C586.948 36.5368 589.068 38.6867 589.042 41.3579Z" fill="white"/>
</svg>
