<svg width="166" height="204" viewBox="0 0 166 204" fill="none" xmlns="http://www.w3.org/2000/svg">
<path d="M132.26 181.666C169.13 135.004 159.567 102.382 125.056 97.0106C90.5454 91.6386 103.389 64.4256 85.9394 49.8806C65.0754 32.4886 18.5994 44.8786 11.9524 89.0466C5.3064 133.215 8.64741 176.895 54.4834 183.856C100.319 190.816 132.26 181.666 132.26 181.666Z" fill="#F0EEFC"/>
<path d="M143.815 182.786C143.815 186.433 117.662 189.389 85.4005 189.389C53.1385 189.389 26.9855 186.433 26.9855 182.786C26.9855 179.139 53.1385 176.183 85.4005 176.183C117.662 176.183 143.815 179.139 143.815 182.786Z" fill="#D9D8EF"/>
<path d="M83.2125 201.416C127.179 201.416 162.82 192.531 162.82 181.571C162.82 170.611 127.179 161.726 83.2125 161.726C39.2462 161.726 3.60449 170.611 3.60449 181.571C3.60449 192.531 39.2462 201.416 83.2125 201.416Z" stroke="#C0C0E2" stroke-width="4.3865" stroke-miterlimit="10"/>
<path d="M84.726 25.2207C90.9905 23.8207 94.9339 17.6074 93.5339 11.3429C92.1338 5.07838 85.9205 1.13494 79.656 2.53497C73.3915 3.935 69.4481 10.1483 70.8481 16.4128C72.2481 22.6773 78.4614 26.6208 84.726 25.2207Z" stroke="#C0C0E2" stroke-width="4.3865" stroke-miterlimit="10"/>
<path d="M82.6064 90.7625C85.0924 78.7855 82.4914 64.7974 68.5284 65.8664C54.5644 66.9344 51.4684 73.9974 40.4584 92.5884C29.4474 111.179 18.9694 107.19 20.1814 119.391C21.3924 131.592 28.4684 131.877 25.3144 141.035C22.1594 150.194 28.0864 163.366 41.9924 156.985C55.8984 150.603 59.1734 124.035 59.1734 124.035L73.2884 101.344L82.6064 90.7625Z" fill="#28295D"/>
<path d="M103.481 166.387C103.036 167.771 102.371 169.15 101.456 170.484C94.5085 180.588 84.4775 181.755 76.0685 183.405C67.6595 185.055 59.1425 178.962 52.6325 168.251L53.7085 161.802L56.0595 147.767L71.3315 132.234L91.1855 136.508L100.605 147.855C100.605 147.855 106.477 157.287 103.481 166.387Z" fill="#A69AD7"/>
<path d="M103.481 166.386C103.036 167.77 102.371 169.15 101.456 170.484C94.5085 180.588 84.4775 181.755 76.0685 183.405C67.6595 185.055 59.1425 178.962 52.6325 168.251L53.7085 161.802L66.7915 148.954C67.8095 161.177 65.9835 173.197 75.8785 175.28C85.7715 177.353 88.9525 172.696 88.0985 164.185C87.2355 155.676 83.2165 140.136 83.8585 140.871C84.4985 141.597 98.8825 157.417 100.487 160.644C101.125 161.924 102.338 164.099 103.481 166.386Z" fill="#8378C1"/>
<path d="M78.1634 116.813C78.1634 116.813 78.1634 116.813 78.1564 116.824L78.1584 116.833C77.9574 117.472 72.0624 136.002 69.8124 144.305C69.5884 145.131 69.4044 145.843 69.2594 146.44C69.2424 146.53 69.2234 146.611 69.2044 146.692C67.7144 153.049 55.8404 175.946 52.8404 174.243C49.8494 172.538 34.7914 154.882 30.8794 134.439L31.3914 132.695L34.2814 122.905L47.4724 105.279C47.4724 105.279 56.3484 103.508 59.2004 104.225C63.1214 105.223 71.0614 111.176 75.3184 114.519C76.1064 115.143 76.7664 115.674 77.2614 116.072L77.5714 116.333C77.9494 116.635 78.1634 116.813 78.1634 116.813Z" fill="#E04164"/>
<path d="M78.1564 116.824L78.1584 116.833C77.9334 117.535 70.8444 139.842 69.2594 146.441L59.9224 150.135L48.6834 142.626C48.6834 142.626 46.9714 138.184 45.1754 136.806C43.3784 135.428 45.7034 121.524 45.7034 121.524C51.9654 134.89 68.5814 124.985 70.4944 120.455C72.2564 116.296 74.9044 114.742 75.3194 114.52C75.3624 114.5 75.3784 114.487 75.3784 114.487L77.2624 116.073L77.5724 116.334L78.1564 116.824Z" fill="#CC365D"/>
<path d="M69.8124 144.305C69.5884 145.131 69.4044 145.843 69.2594 146.44C69.2424 146.53 69.2234 146.611 69.2044 146.692C67.7144 153.049 55.8404 175.946 52.8404 174.243C49.8494 172.538 34.7914 154.882 30.8794 134.439L31.3914 132.695C40.6044 152.51 49.7804 157.073 59.9224 150.134C63.8394 147.449 67.1674 145.505 69.8124 144.305Z" fill="#CC365D"/>
<path d="M100.264 168.695L107.235 179.467L114.162 175.926L109.141 164.519L100.264 168.695Z" fill="#FFBE9D"/>
<path d="M108.477 165.1L114.943 176.183L122.025 172.966L117.537 161.339L108.477 165.1Z" fill="#FFBE9D"/>
<path d="M113.412 125.549C116.376 141.749 121.762 164.304 121.762 164.304L119.957 164.742L106.792 167.95L106.069 168.122C106.069 168.122 105.946 167.884 105.717 167.442C105.094 166.225 103.695 163.464 101.913 159.773C95.5185 146.534 84.2075 121.336 86.2135 112.691C86.2995 112.327 86.3865 111.972 86.4855 111.624L86.4835 111.615C87.1765 109.227 88.1895 107.259 89.4355 105.751C96.0585 97.6906 109.2 102.477 113.412 125.549Z" fill="#A69AD7"/>
<path d="M112.61 176.293C112.487 174.8 111.166 173.891 112.625 173.55C116.645 172.611 123.071 170.336 123.939 171.327C125.028 172.571 128.024 175.765 132.84 175.026C137.656 174.288 139.97 176.585 137.538 179.095C135.107 181.605 119.97 186.513 116.319 186.177C113.79 185.945 112.911 179.957 112.61 176.293Z" fill="#20224C"/>
<path d="M119.956 164.741L106.791 167.949L105.716 167.44L103.481 166.386L97.0524 139.277L86.4864 111.622L86.4844 111.613C87.1774 109.225 88.1904 107.257 89.4364 105.749C96.1394 104.474 100.879 108.686 104.164 122.214C107.811 137.269 110.223 144.905 113.074 154.394C115.891 163.777 116.457 163.347 119.956 164.741Z" fill="#8378C1"/>
<path d="M75.6055 117.373C78.6185 101.001 96.9555 101.185 103.369 128.957C107.075 145.005 113.493 167.284 113.493 167.284L98.0005 171.821C98.0005 171.821 73.3885 129.42 75.6055 117.373Z" fill="#A69AD7"/>
<path d="M104.909 179.684C104.717 178.198 103.355 177.351 104.797 176.943C108.769 175.819 115.083 173.25 115.996 174.2C117.142 175.392 120.282 178.444 125.058 177.484C129.835 176.524 132.252 178.712 129.94 181.331C127.627 183.95 112.734 189.553 109.07 189.386C106.534 189.271 105.379 183.33 104.909 179.684Z" fill="#28295D"/>
<path d="M112.086 119.089C117.748 119.684 118.3 121.428 118.24 126.131C118.18 130.834 115.317 133.426 112.401 132.374C109.485 131.322 113.233 130.569 113.233 130.569C113.233 130.569 109.552 131.036 109.7 129.376C109.848 127.716 112.503 127.492 112.503 127.492C112.503 127.492 108.415 127.831 108.834 125.948C109.253 124.065 113.023 123.583 113.023 123.583L112.086 119.089Z" fill="#FFBE9D"/>
<path d="M71.3365 130.121C72.1815 127.958 75.3135 118.525 77.4405 118.861C79.5675 119.198 76.8415 124.252 76.8415 124.252C76.8415 124.252 83.9175 117.885 85.2805 118.684C86.6435 119.482 84.1895 122.138 84.1895 122.138C84.1895 122.138 87.7865 117.529 88.7375 118.425C89.6885 119.321 86.4755 123.727 86.4755 123.727C86.4755 123.727 88.1295 121.179 89.6375 121.857C91.1455 122.535 87.7095 126.238 87.7095 126.238C87.7095 126.238 90.0235 124.781 90.7655 125.513C91.5075 126.245 83.6815 133.969 76.9755 135.904C70.2705 137.84 71.3365 130.121 71.3365 130.121Z" fill="#FFBE9D"/>
<path d="M50.6355 102.122C33.5095 103.241 27.8125 114.929 29.7585 129.046C31.7045 143.163 42.1025 158.639 49.7655 159.625C57.4285 160.611 78.5485 137.1 78.5485 137.1L72.1805 127.957C72.1805 127.957 53.3425 137.47 50.8495 141.145C50.8495 141.145 47.5685 122.579 44.7525 120.163C41.9365 117.747 53.5275 104.625 53.5275 104.625L50.6355 102.122Z" fill="#E04164"/>
<path d="M71.5266 103.551C67.5686 105.638 63.1416 104.904 60.2276 102.262C59.8126 101.887 59.4265 101.472 59.0775 101.021C57.5555 99.0555 55.9915 96.9785 55.2255 94.4385C54.6065 92.3735 54.5206 90.0095 55.4126 87.1685L59.2556 77.0225L69.1196 71.7155C69.1196 71.7155 80.3375 79.7845 81.3365 80.5585C82.3355 81.3325 81.5266 88.4195 81.5266 88.4195C77.8696 96.0435 75.7056 101.35 71.5266 103.551Z" fill="#FFBE9D"/>
<path d="M78.8285 80.0263C70.4175 87.4033 61.1745 81.5303 61.1745 81.5303L57.2975 85.1393C57.2975 85.1393 56.9605 79.6123 56.1005 78.2983C55.2405 76.9843 59.0095 71.1813 59.0095 71.1813L68.7205 71.5153L78.8805 74.4903L78.8285 80.0263Z" fill="#28295D"/>
<path d="M57.8246 84.9673C59.2786 79.3243 55.4896 76.5454 53.0606 78.6634C50.6316 80.7824 51.1286 87.3163 57.2446 89.2093" fill="#FFBE9D"/>
<path d="M77.2905 78.6834C75.4615 84.7934 79.2525 90.4304 82.6055 90.7624C85.9595 91.0934 87.5765 83.9474 85.3215 80.3834C83.0665 76.8174 77.2905 78.6834 77.2905 78.6834Z" fill="#28295D"/>
<path d="M59.2026 104.227L58.2775 106.034C57.7385 107.087 56.8275 107.824 55.7815 108.162C54.7355 108.5 53.5616 108.442 52.5006 107.899C50.3936 106.821 49.5565 104.229 50.6355 102.122L53.8465 95.8483C54.6665 98.5673 56.3415 100.793 57.9715 102.897C58.3455 103.381 58.7586 103.825 59.2026 104.227Z" fill="#FFBE9D"/>
<path opacity="0.48" d="M66.8245 99.1331C66.7325 97.6451 63.3255 96.17 63.3255 96.17" stroke="#ED7845" stroke-width="1.0966" stroke-miterlimit="10" stroke-linecap="round"/>
<path d="M68.8156 89.4632C68.4636 90.1512 67.8136 90.5222 67.3636 90.2912C66.9136 90.0612 66.8336 89.3162 67.1866 88.6282C67.5386 87.9402 68.1886 87.5692 68.6386 87.8002C69.0886 88.0312 69.1676 88.7752 68.8156 89.4632Z" fill="#383838"/>
<path d="M75.6716 92.9715C75.3196 93.6595 74.6696 94.0305 74.2196 93.7995C73.7696 93.5695 73.6906 92.8245 74.0426 92.1375C74.3946 91.4495 75.0446 91.0785 75.4946 91.3095C75.9446 91.5395 76.0236 92.2845 75.6716 92.9715Z" fill="#383838"/>
<path d="M60.2125 102.254L58.6565 105.295C55.9915 104.416 52.0405 99.3772 52.0405 99.3772L55.0295 93.5372C55.8495 96.2572 57.3515 98.8202 58.9815 100.925C59.3545 101.408 59.7675 101.852 60.2125 102.254Z" fill="#EF9B92"/>
<path opacity="0.48" d="M70.5945 93.9845C70.5775 95.8335 70.2455 98.2965 68.2515 96.3465" stroke="#ED7845" stroke-width="1.0966" stroke-miterlimit="10" stroke-linecap="round"/>
<path d="M56.6786 83.8275C56.2586 81.2835 54.6056 81.1425 54.0536 81.7395C53.5016 82.3355 54.3136 84.3525 55.7746 85.5935" fill="#EF9B92"/>
<path d="M79.0515 25.4933C25.8875 47.9053 -2.63653 103.958 3.93047 180.973" stroke="#C0C0E2" stroke-width="4.3865" stroke-miterlimit="10"/>
<path d="M80.0315 25.4933C62.3105 47.9053 54.9495 123.309 57.1385 200.324" stroke="#C0C0E2" stroke-width="4.3865" stroke-miterlimit="10"/>
<path d="M85.6555 25.4933C103.376 47.9053 111.337 123.309 109.147 200.324" stroke="#C0C0E2" stroke-width="4.3865" stroke-miterlimit="10"/>
<path d="M86.6365 25.4933C139.8 47.9053 169.388 104.557 162.821 181.571" stroke="#C0C0E2" stroke-width="4.3865" stroke-miterlimit="10"/>
</svg>
