<svg width="695" height="247" viewBox="0 0 695 247" fill="none" xmlns="http://www.w3.org/2000/svg">
<path d="M127.396 59.8573C132.573 58.6153 135.575 49.0383 133.917 42.0163C131.792 33.0163 128.199 29.7953 118.97 26.4143L127.396 59.8573Z" fill="#5E2F36"/>
<path d="M448.774 219.2L447.569 246.267H546.569C546.569 246.267 543.875 224.29 542.069 217.007L448.774 219.2Z" fill="#4F512E"/>
<path d="M558.945 110.679C558.945 110.679 564.069 104.702 572.961 104.118C581.853 103.534 582.891 103.991 586.578 102.973C590.265 101.955 592.48 99.9843 589.878 90.8063C589.878 90.8063 584.022 93.3403 578.166 89.8703C572.31 86.4003 565.695 80.0953 567.105 52.6363C567.854 38.0553 595.516 24.3723 609.397 35.2163C623.277 46.0603 623.928 63.6283 620.024 72.0863C616.12 80.5443 614.168 81.7063 613.301 86.2223C612.433 90.7383 613.132 97.2533 616.169 99.6303C619.205 102.006 640.737 100.597 646.57 108.221C654.766 117.481 682.071 154.994 688.575 165.25C691.705 170.186 695.07 174.513 694.32 176.971C692.82 182.471 651.57 246.267 651.57 246.267H644.82L643.153 224.18L665.153 180.347L642.695 147.369L564.847 155.31L564.463 143.398C564.463 143.398 552.411 143.474 546.775 142.474L558.945 110.679Z" fill="#F8C6A3"/>
<path d="M613.031 89.6233C613.026 89.8993 612.951 90.2343 612.842 90.5813C612.237 92.5103 610.709 94.0453 608.784 94.6623C607.462 95.0853 605.619 95.4123 603.074 95.4123C594.888 95.4123 589.945 90.8053 589.945 90.8053C589.945 90.8053 583.277 93.6803 577.12 89.2213C582.278 89.8053 586.236 85.2923 584.809 80.1873C583.819 76.6463 613.03 89.6163 613.03 89.6163L613.031 89.6233Z" fill="#F3BD99"/>
<path d="M672.486 180.846C671.986 179.179 666.15 169.179 666.15 169.179C675.479 164.347 680.283 153.128 680.284 153.124V153.123L671.652 147.179L645.402 151.345L665.153 180.346L643.153 224.179L643.675 231.096C651.002 218.89 672.903 182.234 672.486 180.846Z" fill="#F3BD99"/>
<path d="M589.6 101.448C595.986 103.513 610.351 104.581 616.168 99.6303C616.168 99.6303 623.711 100.141 628.069 100.512C634.738 101.08 642.236 101.017 649.236 108.262C656.236 115.506 680.944 152.095 680.944 152.095C680.944 152.095 673.569 165.345 654.787 167.544L645.363 154.207C645.363 154.207 643.569 179.595 644.569 201.595C645.252 216.62 647.444 246.266 647.444 246.266H557.819C557.819 246.266 555.486 170.012 560.486 153.679L569.026 104.756C569.026 104.756 572.11 104.177 578.079 103.845C584.048 103.513 589.6 101.448 589.6 101.448Z" fill="#3CB28E"/>
<path d="M622.648 35.1723C621.255 34.9973 619.892 35.0873 618.596 35.3793C618.825 34.6823 618.995 33.9553 619.089 33.2013C619.885 26.8573 615.387 21.0693 609.043 20.2743C605.801 19.8673 602.708 20.8493 600.349 22.7483C599.66 21.9483 598.696 21.3813 597.567 21.2403C596.048 21.0493 594.614 21.6563 593.681 22.7333C591.634 19.1553 588.001 16.5423 583.597 15.9903C576.159 15.0573 569.373 20.3313 568.44 27.7693C568.171 29.9163 568.432 32.0023 569.1 33.9153C568.676 33.8023 568.245 33.7063 567.797 33.6503C562.484 32.9843 557.637 36.7503 556.97 42.0633C556.304 47.3763 560.07 52.2233 565.383 52.8903C565.991 52.9663 566.592 52.9783 567.182 52.9423C569.149 61.5103 575.229 64.2513 577.119 64.0273C579.032 63.8003 578.235 56.6953 583.743 56.4763C591.581 56.1643 592.076 67.3093 589.576 71.8093C587.076 76.3093 584.926 74.7733 583.743 75.1423C581.91 76.3093 585.644 83.3043 591.852 87.2073C598.954 91.6713 607.085 91.1223 611.981 90.0143C613.215 89.7353 614.952 88.3453 616.828 86.2063C616.937 86.2253 617.044 86.2503 617.155 86.2643C620.896 86.7333 624.308 84.0813 624.778 80.3403C624.983 78.7073 624.583 77.1433 623.766 75.8523C627.314 74.7733 630.082 71.7033 630.573 67.7853C630.84 65.6563 630.386 63.6073 629.415 61.8663C630.44 61.1813 631.175 60.0743 631.341 58.7543C631.533 57.2253 630.915 55.7833 629.825 54.8513C631.44 53.1073 632.552 50.8673 632.87 48.3283C633.681 41.8713 629.104 35.9823 622.648 35.1723Z" fill="#D6594C"/>
<path d="M621.51 81.8904C618.608 81.9424 617.968 78.7293 616.833 79.8643C616.024 80.6733 614.185 82.1373 610.935 83.6483C607.591 85.2033 597.44 84.9303 595.076 83.7763C587.288 79.9763 587.188 76.9143 587.188 76.9143C592.233 74.5403 591.238 70.1103 590.913 66.2513C590.853 68.3683 590.363 70.3924 589.578 71.8064C587.078 76.3064 584.928 74.7703 583.745 75.1393C581.912 76.3063 585.646 83.3013 591.854 87.2043C598.956 91.6683 607.087 91.1193 611.983 90.0113C613.217 89.7323 614.954 88.3423 616.83 86.2033C616.939 86.2223 617.046 86.2473 617.157 86.2613C620.898 86.7303 624.31 84.0783 624.78 80.3373C624.845 79.8173 624.829 79.3103 624.778 78.8103C624.778 79.9423 624.03 81.8454 621.51 81.8904Z" fill="#BF4A41"/>
<path d="M365.075 72.1673C362.858 70.3943 359.755 69.9503 357.538 73.3493C355.321 76.7483 360.05 89.0143 366.848 85.1723L365.075 72.1673Z" fill="#F8C6A3"/>
<path d="M417.321 72.1673C419.538 70.3943 422.641 69.9503 424.858 73.3493C427.075 76.7483 422.346 89.0143 415.547 85.1723L417.321 72.1673Z" fill="#F8C6A3"/>
<path d="M391.198 107.292C406.982 107.292 419.776 93.3943 419.776 76.2503C419.776 59.1063 406.982 45.2083 391.198 45.2083C375.415 45.2083 362.62 59.1063 362.62 76.2503C362.62 93.3943 375.415 107.292 391.198 107.292Z" fill="#65439B"/>
<path d="M419.776 76.2504C419.776 71.3094 418.708 66.6404 416.817 62.4934C417.841 66.9184 417.863 73.9904 412.381 81.1154C409.018 85.4864 392.341 87.7494 378.56 82.9474C365.077 78.2494 364.804 64.3554 367.692 58.6024C364.497 63.6144 362.62 69.6924 362.62 76.2504C362.62 93.3944 375.415 107.292 391.198 107.292C406.981 107.292 419.776 93.3944 419.776 76.2504Z" fill="#523C7C"/>
<path d="M420.062 52.2944C423.372 45.4332 418.693 36.3195 409.611 31.9384C400.529 27.5573 390.484 29.5678 387.174 36.4291C383.864 43.2903 388.543 52.404 397.625 56.7851C406.706 61.1662 416.752 59.1556 420.062 52.2944Z" fill="#65439B"/>
<path d="M136.161 246.267C137.561 233.446 140.323 217.268 143.625 208.137H231.82C235.122 217.268 237.885 233.446 239.284 246.267H136.161Z" fill="#394E5B"/>
<path d="M333.993 210.587H244.313L242.313 246.267H335.993L333.993 210.587Z" fill="#4477BB"/>
<path d="M265.863 48.1424C263.646 46.3694 260.543 45.9254 258.326 49.3244C256.109 52.7234 260.838 64.9894 267.637 61.1474L265.863 48.1424Z" fill="#F8C6A3"/>
<path d="M316.086 48.1083C318.322 46.3593 321.43 45.9493 323.61 49.3733C325.79 52.7963 320.926 65.0103 314.171 61.0933L316.086 48.1083Z" fill="#F8C6A3"/>
<path d="M301.153 76.8463H277.153V97.1793H301.153V76.8463Z" fill="#F8C6A3"/>
<path d="M277.153 79.4303V83.4903C277.153 83.4903 279.679 87.0123 289.153 87.0123C298.627 87.0123 301.153 84.4023 301.153 84.4023V76.8463H277.153V79.4303Z" fill="#F3BD99"/>
<path d="M471.137 52.4103C468.92 50.6373 465.817 50.1933 463.6 53.5923C461.383 56.9913 466.112 69.2573 472.911 65.4153L471.137 52.4103Z" fill="#C17A61"/>
<path d="M140.419 106.362C140.419 106.362 131.662 100.908 122.77 100.324C113.878 99.7403 112.84 100.197 109.153 99.1793C105.466 98.1613 103.251 96.1903 105.853 87.0123C105.853 87.0123 113.089 89.2183 118.97 85.7923C128.158 80.4393 127.715 62.7133 127.715 48.1133C127.715 33.5123 100.213 20.5783 86.3334 31.4223C72.4524 42.2663 71.8024 59.8343 75.7064 68.2923C79.6104 76.7503 81.5624 77.9123 82.4294 82.4283C83.2964 86.9443 82.5974 93.4593 79.5614 95.8363C76.5254 98.2123 61.0054 94.3213 53.5844 102.993C46.0364 111.813 20.4014 155.262 15.6304 163.72C10.8594 172.178 8.03942 174.998 12.1604 184.107C16.2814 193.216 39.2704 223.58 39.2704 223.58L49.2474 210.587L33.1984 175.216L56.6214 142.684L130.884 151.517L131.268 140.697C131.268 140.697 151.409 137.254 161.144 133.309L140.419 106.362Z" fill="#E0A375"/>
<path d="M155.836 126.407C153.462 127.199 138.8 114.942 137.735 117.664C136.322 121.273 137.718 128.045 141.718 131.711C135.49 133.247 128.043 134.61 126.179 134.249C121.213 133.287 114.621 124.163 114.183 112.801L103.844 138.79L106.663 148.635L130.884 151.516L131.268 140.696C131.268 140.696 151.409 137.253 161.144 133.308L155.836 126.407Z" fill="#D7986A"/>
<path d="M82.7674 85.8313C82.7724 86.1073 82.8474 86.4423 82.9564 86.7893C83.5614 88.7183 85.0894 90.2533 87.0144 90.8703C88.3364 91.2933 90.1794 91.6203 92.7244 91.6203C100.91 91.6203 105.853 87.0133 105.853 87.0133C105.853 87.0133 113.114 89.2633 118.97 85.7933C114.593 84.8193 108.865 81.5753 108.627 77.9063C108.389 74.2363 82.7674 85.8253 82.7674 85.8253V85.8313Z" fill="#CE8E60"/>
<path d="M56.9554 128.282C56.9554 128.282 26.3754 170.056 24.9574 172.41C23.5384 174.764 48.1364 208.137 48.1364 208.137L33.1984 175.216L56.6214 142.684L68.8074 144.133L71.2054 136.708L56.9554 128.282Z" fill="#D7986A"/>
<path d="M66.8834 97.1793C60.9594 108.632 55.1034 125.766 56.6214 142.683C58.1394 159.6 64.0374 175.215 61.6304 184.324C59.2234 193.433 35.5834 220.805 24.9564 246.266H128.842C128.842 246.266 131.011 221.194 131.228 191.481C131.445 161.768 130.701 146.516 130.701 146.516C130.701 146.516 119.902 148.019 116.32 133.179C112.241 116.282 114.099 104.551 118.651 100.194L110.301 99.3613C107.653 102.596 104.171 109.847 99.2364 115.346C93.5664 121.663 76.5694 121.096 73.4034 115.179C71.0904 110.857 73.1514 100.564 75.0694 96.7473C75.0694 96.7473 69.4464 96.1793 66.8834 97.1793Z" fill="#EC6469"/>
<path d="M131.156 164.164C124.468 165.564 94.5434 171.793 93.3074 171.426C92.1364 171.078 68.4604 169.04 60.9604 168.401C61.6614 172.286 62.1574 175.848 62.1874 178.976L62.1954 179C62.1954 179 98.6784 188.945 108.627 189.542C118.576 190.139 123.341 186.758 131.266 179.001C131.259 173.32 131.216 168.368 131.156 164.164Z" fill="#D3545E"/>
<path d="M161.144 133.308C154.774 134.787 149.631 136.837 131.268 140.696C120.75 150.817 108.877 161.969 106.828 162.764C103.022 164.24 62.9894 163.414 59.6504 161.605L58.2834 154.494C58.2834 154.494 54.5884 156.843 55.2554 165.681C55.9224 174.519 59.7214 175.181 59.7214 175.181C59.7214 175.181 102.243 184.181 111.617 181.578C120.99 178.976 162.081 144.518 162.081 144.518L161.144 133.308Z" fill="#F8C6A3"/>
<path d="M161.332 135.564L153.293 135.401C153.293 135.401 141.01 149.852 134.374 156.308C127.738 162.763 114.976 176.898 108.627 177.919C102.28 178.94 64.7824 176.206 64.7624 176.205C76.3044 178.485 104.235 183.629 111.616 181.58C120.989 178.978 162.08 144.52 162.08 144.52L161.332 135.564Z" fill="#F3BD99"/>
<path d="M521.497 52.3763C523.733 50.6273 526.841 50.2183 529.021 53.6413C531.201 57.0643 526.337 69.2783 519.582 65.3623L521.497 52.3763Z" fill="#C17A61"/>
<path d="M507.939 81.1154H483.939V101.448H507.939V81.1154Z" fill="#C17A61"/>
<path d="M483.939 81.1154V87.0134C483.939 87.0134 489.635 89.5724 497.278 89.1804C504.921 88.7874 507.939 85.9104 507.939 85.9104V81.1154H483.939Z" fill="#B5715A"/>
<path d="M153.294 135.401C153.574 142.208 153.639 155.331 155.035 164.16C157.021 176.725 146.379 191.211 142.483 208.107C142.483 208.107 158.302 217.007 187.724 217.007C217.145 217.007 232.965 208.107 232.965 208.107C229.07 191.212 218.427 176.725 220.413 164.16C221.809 155.331 222.794 142.303 223.073 135.496L153.294 135.401Z" fill="#FFDA60"/>
<path d="M220.402 170.716C220.108 168.474 220.075 166.289 220.411 164.16C221.304 158.509 222.028 151.142 222.508 144.783C221.66 140.346 221.012 136.976 221.012 136.976L219.367 135.491L153.293 135.401C153.34 136.546 153.381 137.88 153.423 139.332C156.408 140.024 164.133 145.29 166.064 155.121C167.688 163.389 172.559 176.363 191.519 178.645C203.371 180.071 214.056 174.913 220.402 170.716Z" fill="#EAAB4E"/>
<path d="M338.65 225.426C338.65 225.426 327.32 231.426 289.15 231.426C250.99 231.426 239.65 225.426 239.65 225.426C239.65 225.426 239.77 222.656 240.02 217.816C240.45 209.266 241.28 194.226 242.49 176.546C242.51 176.236 242.53 175.926 242.56 175.616C242.65 174.206 242.75 172.786 242.86 171.346C242.89 170.866 242.93 170.386 242.96 169.906C243.82 157.986 245.42 147.366 245.57 135.626C245.67 134.916 245.77 134.216 245.86 133.516C245.96 132.826 246.06 132.126 246.16 131.436C246.46 129.356 246.77 127.306 247.07 125.296C247.23 124.256 247.4 123.216 247.56 122.196C250.19 105.616 252.95 92.7363 254.32 92.0163C256.82 90.6763 277.15 89.1763 277.15 89.1763C277.15 89.1763 280.49 93.2263 289.15 93.2263C297.82 93.2263 301.15 89.1763 301.15 89.1763C301.15 89.1763 321.49 90.6763 323.99 92.0163C326.49 93.3463 331.31 127.056 333.81 157.886C336.31 188.716 338.65 225.426 338.65 225.426Z" fill="#DEF1F8"/>
<path opacity="0.37" d="M326.347 121.827C321.178 123.702 324.136 144.533 324.136 144.533L332.526 143.769C331.741 135.942 330.853 128.274 329.936 121.338C328.364 121.39 327.128 121.544 326.347 121.827Z" fill="#90C8EE"/>
<path opacity="0.37" d="M333.99 171.826C333.99 171.826 298.92 186.556 291.57 189.606C284.21 192.666 260.06 183.306 255.29 181.646C253.57 181.046 247.11 178.886 240.02 217.816C240.45 209.266 241.28 194.226 242.49 176.546C242.51 176.236 242.53 175.926 242.56 175.616C242.65 174.206 242.75 172.786 242.86 171.346C242.89 170.866 242.93 170.386 242.96 169.906C243.82 157.986 245.42 147.366 245.57 135.626C245.67 134.916 245.77 134.216 245.86 133.516C245.96 132.816 246.06 132.126 246.16 131.436C246.46 129.356 246.77 127.306 247.07 125.296C247.24 124.256 247.4 123.216 247.56 122.196C252.79 124.066 254.33 127.006 255.11 132.156C256.25 139.686 256.04 163.026 256.04 163.026L291.35 177.736L333.99 171.826Z" fill="#90C8EE"/>
<path d="M237.303 133.308C237.303 133.308 282.228 161.528 286.128 162.734C290.027 163.941 330.535 159.082 333.74 157.044L333.206 150.844C333.206 150.844 339.243 152.482 339.195 161.345C339.147 170.208 333.987 171.829 333.987 171.829C333.987 171.829 292.197 183.777 282.665 181.837C273.133 179.896 224.751 151.922 224.751 151.922L237.303 133.308Z" fill="#F8C6A3"/>
<path d="M333.206 150.845L333.74 157.045C330.535 159.083 290.027 163.941 286.128 162.735C285.059 162.404 280.9 160.039 275.432 156.784L269.633 156.405C272.897 158.852 283.088 167.17 296.906 171.426C310.724 175.683 311.325 173.268 317.333 170.42C322.869 167.796 334.255 161.13 338.714 157.319C337.298 151.968 333.206 150.845 333.206 150.845Z" fill="#EDB48E"/>
<path d="M284.269 176.013C280.259 174.065 238.522 150.482 229.733 144.534L224.75 151.923C224.75 151.923 273.132 179.897 282.664 181.838C292.196 183.779 333.986 171.83 333.986 171.83C333.986 171.83 288.779 178.203 284.269 176.013Z" fill="#F3BD99"/>
<path d="M192.861 23.2723C184.56 23.2723 172.716 23.9913 169.119 37.4813C162.35 37.5373 155.32 41.5133 156.32 51.1793C157.601 63.5593 155.934 66.4893 150.773 70.8093C143.613 76.8033 142.937 83.4543 143.911 89.1793C144.885 94.9043 142.439 101.352 139.076 109.761C135.712 118.17 138.445 129.733 148.957 133.727C159.468 137.721 165.565 140.034 168.719 149.074C171.873 158.114 179.91 171.426 201.886 170.42C228.136 169.218 241.383 142.499 236.834 127.841C233.05 115.648 232.629 110.812 235.162 101.366C237.511 92.6023 236.323 83.7513 225.272 76.8453C216.966 71.6553 217.682 58.9363 216.606 50.9703C214.805 37.6613 208.33 23.2723 192.861 23.2723Z" fill="#AA683A"/>
<path d="M142.482 103.414L140.418 106.362C147.909 110.75 170.425 128.792 177.356 131.059C184.286 133.325 218.639 136.067 237.573 136.976C237.881 133.618 237.65 130.478 236.832 127.842C234.983 121.886 233.943 117.688 233.652 113.848L192.494 111.622L142.482 103.414Z" fill="#935B35"/>
<path d="M418.009 88.3383C409.825 89.1293 388.318 90.1313 374.096 87.6133C359.874 85.0953 342.986 81.5393 333.505 84.7983C324.024 88.0573 319.152 90.9773 319.152 90.9773L323.938 91.9833C323.938 91.9833 388.151 113.982 391.197 114.278C394.243 114.574 418.87 112.204 418.87 112.204L418.009 88.3383Z" fill="#C17A61"/>
<path d="M391.198 114.279C393.95 114.547 414.32 112.638 418.222 112.267L410.32 96.8733C402.754 99.4083 393.546 103.543 389.831 103.414C386.116 103.285 345.892 89.6063 337.492 89.1763C329.092 88.7463 319.154 90.9784 319.154 90.9784L323.94 91.9843C323.94 91.9843 388.152 113.983 391.198 114.279Z" fill="#B5715A"/>
<path d="M537.653 92.8463C526.677 92.4353 514.559 88.0563 507.939 90.5133C507.939 90.5133 506.32 94.1803 496.653 94.6803C489.025 95.0753 483.939 91.9163 483.939 91.9163C483.939 91.9163 473.016 88.7393 464.374 86.6563C456.561 84.7723 452.298 85.1633 443.125 85.9113C434.13 86.6443 411.582 88.8143 411.582 88.8143C411.582 88.8143 405.82 110.597 417.384 121.347C417.384 121.347 429.07 122.962 435.319 124.347C443.473 126.154 445.582 128.396 445.582 130.692C445.582 136.053 445.582 191.514 447.319 218.514C447.319 218.514 461.243 226.414 499.787 225.648C538.331 224.882 544.968 219.011 544.968 219.011C544.968 219.011 539.079 139.88 539.035 135.688C539.023 134.511 539.208 133.537 539.694 132.756" fill="#FFEAA8"/>
<path d="M455.265 189.609C461.089 184.965 533.01 209.394 536.795 205.9C538.489 204.337 540.997 200.092 543.253 195.801C543.007 192.454 542.747 188.909 542.482 185.28C536.466 186.337 528.059 188.139 528.059 188.139L531.277 162.289C531.277 162.289 464.291 162.224 459.673 157.68C455.055 153.136 454.099 128.156 453.517 122.426C452.935 116.696 441.579 113.015 429.524 110.578L423.245 98.8994L410.718 107.982C411.564 112.853 413.488 117.726 417.384 121.348C417.384 121.348 429.07 122.963 435.319 124.348C443.473 126.155 445.582 128.397 445.582 130.693C445.582 136.054 445.582 191.515 447.319 218.515C447.32 218.513 449.441 194.253 455.265 189.609Z" fill="#F7D89A"/>
<path d="M436.342 86.4984C436.334 86.4994 410.32 96.8734 410.32 96.8734C410.06 100.087 410.035 103.933 410.684 107.796C415.813 108.155 422.351 108.565 422.351 108.565L434.352 96.8954L436.342 86.4984Z" fill="#F7D89A"/>
<path d="M210.905 98.4704L185.232 104.295C185.232 104.295 158.556 96.0534 147.278 94.5354C136 93.0174 122.77 100.324 122.77 100.324C122.77 100.324 134.644 102.573 140.419 106.362C146.194 110.151 175.473 126.2 185.015 126.634C194.558 127.068 219.282 126.634 219.282 126.634L210.905 98.4704Z" fill="#F8C6A3"/>
<path d="M185.015 126.634C194.558 127.068 219.282 126.634 219.282 126.634L210.905 98.4703C210.905 98.4703 201.928 106.164 200.252 119.287C200.252 119.287 191.243 120.759 184.958 120.195C178.673 119.631 145.156 103.499 137.717 102.242C130.278 100.985 122.77 100.324 122.77 100.324C122.77 100.324 134.644 102.573 140.419 106.362C146.194 110.151 175.472 126.2 185.015 126.634Z" fill="#F3BD99"/>
<path d="M346.307 143.513C346.307 143.513 346.257 152.875 354.524 167.115C358.819 174.513 357.476 181.264 354.524 194.215C351.572 207.165 342.152 246.267 342.152 246.267H445.582C445.582 246.267 439.819 219.346 428.075 199.971C418.077 183.476 409.153 175.013 410.568 168.252C413.466 154.41 423.333 123.079 418.87 119.339L346.306 123.524V143.513H346.307Z" fill="#93BF56"/>
<path d="M354.525 146.802C357.564 143.204 358.935 138.79 358.935 138.79C358.935 138.79 391.317 140.321 396.286 140.306C400.036 140.295 413.672 130.03 419.991 124.583C420.079 121.969 419.768 120.09 418.871 119.338L346.307 123.523V143.513C346.307 143.513 346.306 146.197 347.547 150.845C347.618 150.836 351.513 150.368 354.525 146.802Z" fill="#80AD4D"/>
<path d="M564.803 153.954C564.803 153.954 547.854 184.14 537.82 197.346C536.128 199.573 534.653 200.035 532.515 199.992C525.708 199.857 460.688 180.98 453.072 177.512C444.654 173.679 441.46 170.52 440.223 160.849C438.987 151.178 445.602 140.845 445.602 140.845L445.676 153.848C445.676 153.848 460.403 160.178 467.695 162.178C474.987 164.178 518.487 172.345 518.487 172.345L536.987 142.678L564.803 153.954Z" fill="#F8C6A3"/>
<path d="M556.43 150.561L536.986 142.68L527.566 157.786C527.566 157.786 528.848 164.087 534.272 170.475C538.083 174.963 541.911 177.194 541.911 177.194C541.911 177.194 534.519 189.192 532.546 190.671C530.574 192.15 468.496 175.018 468.496 175.018L509.307 170.608C496.844 168.24 473.205 163.692 467.694 162.18C460.402 160.18 445.675 153.85 445.675 153.85L445.601 140.847C445.601 140.847 438.986 151.18 440.222 160.851C441.458 170.522 444.652 173.68 453.07 177.514C460.686 180.982 525.706 199.859 532.513 199.994C534.651 200.036 536.127 199.574 537.818 197.348C545.639 187.054 557.661 166.446 562.583 157.857L556.43 150.561Z" fill="#F3BD99"/>
<path d="M418.871 119.338C423.769 118.59 428.952 126.221 436.76 132.833C443.803 138.796 461.934 151.555 464.559 151.68L529.938 153.983L520.715 168.773C511.823 170.421 462.32 173.014 458.82 172.014C452.18 170.117 415.986 146.616 415.986 146.616C418.43 135.435 419.462 124.374 418.871 119.338Z" fill="#FFDBC2"/>
<path d="M572.07 143.096C567.24 155.296 553.99 176.016 553.99 176.016C535.15 172.916 526.5 155.976 526.5 155.976C526.5 155.976 529.95 149.266 535.08 140.326C535.08 140.316 535.08 140.316 535.09 140.306C536.45 137.916 537.94 135.376 539.52 132.756C540.65 130.936 543.6 130.166 549.32 130.346C557.49 130.606 567.43 128.906 567.43 128.906C567.43 128.906 568.85 124.166 569.01 117.496C564.5 119.176 558.06 120.966 550.42 121.316C548.9 121.386 547.56 121.546 546.38 121.786C547.05 120.766 547.72 119.756 548.4 118.756C556.15 107.296 563.12 103.946 569.03 104.756C575.67 112.756 575.34 134.836 572.07 143.096Z" fill="#3CB28E"/>
<path d="M354.525 122.551C348.9 121.593 339.162 126.221 331.354 132.833C324.311 138.796 304.445 151.597 301.82 151.722C298.226 151.893 260.425 147.676 260.425 147.676C260.425 147.676 271.584 160.952 285.82 165.514C297.07 169.119 304.112 170.597 310.945 169.597C317.778 168.597 349.32 146.595 349.32 146.595C354.525 143.373 357.879 127.998 354.525 122.551Z" fill="#FFDBC2"/>
<path d="M347.618 136.975C349.054 139.106 328.379 152.613 322.303 157.144C316.227 161.675 310.775 164.602 304.063 164.164C297.351 163.726 279.812 160.458 261.172 148.52C263.888 151.51 273.745 161.644 285.82 165.513C297.07 169.118 304.112 170.596 310.945 169.596C317.778 168.596 349.32 146.594 349.32 146.594C354.525 143.373 357.879 127.998 354.525 122.551C348.9 121.593 339.162 126.221 331.354 132.832C331.354 132.832 346.182 134.844 347.618 136.975Z" fill="#FBD1B5"/>
<path d="M365.493 102.364L390.569 111.179C390.569 111.179 422.167 93.2203 432.805 89.1793C450.108 74.4103 464.373 86.6553 464.373 86.6553C464.373 86.6553 457.52 87.0123 440.068 101.448C434.746 105.85 403.409 134.702 393.867 134.243C384.325 133.784 354.524 129.623 354.524 129.623L365.493 102.364Z" fill="#F8C6A3"/>
<path d="M393.868 134.243C403.41 134.702 434.747 105.85 440.069 101.448C457.521 87.0133 464.374 86.6553 464.374 86.6553C458.279 83.1963 448.648 87.7163 438.337 96.1533C428.026 104.59 398.532 126.802 394.935 126.826C391.338 126.85 373.77 124.387 373.77 124.387C371.675 105.601 365.493 102.363 365.493 102.363L354.524 129.622C354.524 129.622 384.326 133.785 393.868 134.243Z" fill="#F3BD99"/>
<path d="M323.939 91.9843C323.939 91.9843 330.92 91.2073 342.744 94.9043C355.403 98.8623 365.493 102.365 365.493 102.365C365.493 102.365 374.722 113.732 367.634 134.244C367.634 134.244 356.965 133.408 345.444 132.097C335.022 130.911 335.062 129.956 331.353 132.833C331.353 132.833 325.819 130.472 323.319 115.722C320.714 100.347 323.939 91.9843 323.939 91.9843Z" fill="#00A5C8"/>
<path opacity="0.37" d="M325.036 122.918C327.742 131.287 331.353 132.832 331.353 132.832C335.062 129.954 335.022 130.909 345.444 132.096C356.965 133.407 367.634 134.243 367.634 134.243C368.736 131.053 369.443 128.085 369.852 125.346C356.282 123.702 331.515 119.952 326.346 121.827C325.832 122.014 325.401 122.395 325.036 122.918Z" fill="#3E65AE"/>
<path d="M117.486 59.6793C119.399 59.9063 124.881 56.4833 126.742 47.6533C126.742 47.6533 132.653 32.6793 118.153 26.0123C103.653 19.3453 89.2674 20.7283 79.5624 29.5123C68.0084 39.9703 66.6914 55.6343 69.9864 67.0123C72.8804 77.0033 75.5344 82.5153 83.7474 86.2173C88.6444 87.3253 96.7754 87.8733 103.876 83.4103C110.085 79.5073 113.819 72.5123 111.985 71.3453C110.802 70.9763 108.652 72.5123 106.152 68.0123C103.652 63.5123 104.143 52.5053 111.985 52.6793C117.618 52.8043 115.573 59.4533 117.486 59.6793Z" fill="#5E2F36"/>
<path d="M90.1864 25.8873C90.1864 25.8873 87.9414 4.08233 66.7244 0.721335C45.1624 -2.69467 33.8344 6.49934 29.3914 18.2353C24.7594 30.4703 33.7244 44.9023 22.8914 52.5683C12.0584 60.2353 0.891428 63.5683 0.0584284 75.4013C-0.774572 87.2343 7.55843 89.6973 8.55843 96.2163C9.55843 102.734 3.75443 109.568 11.9064 117.901C20.0584 126.234 43.3914 127.436 55.8914 109.18C66.6014 93.5383 62.7244 77.7343 63.0584 60.9013C63.3924 44.0683 64.9264 34.6053 72.3914 29.4043C78.8504 24.9043 86.2244 30.4013 86.2244 30.4013L90.1864 25.8873Z" fill="#5E2F36"/>
<path d="M277.094 27.7473C277.094 27.7473 272.069 25.5303 267.636 29.8163C263.202 34.1023 261.872 44.4473 264.976 56.4183C268.08 68.3893 270.944 80.9793 289.509 82.4283C306.496 83.7543 314.205 69.7903 316.293 57.6363C317.811 48.7993 318.331 44.2943 318.331 44.2943C318.331 44.2943 322.636 42.8463 325.069 38.7213C328.129 33.5343 323.446 34.8123 318.569 34.2213C318.569 34.2213 324.273 31.1143 326.319 26.4713C329.486 19.2833 326.503 17.7663 320.444 19.0963C314.385 20.4263 307.981 18.7323 299.262 16.2203C290.543 13.7083 277.39 15.6293 277.094 27.7473Z" fill="#2F256A"/>
<path d="M274.244 89.4093C274.244 89.4093 276.532 96.1533 289.153 96.1533C301.773 96.1533 304.063 89.4093 304.063 89.4093C304.055 89.4083 304.047 89.4083 304.038 89.4073L301.153 89.1793C301.153 89.1793 297.82 93.2213 289.153 93.2213C280.486 93.2213 277.153 89.1793 277.153 89.1793L274.254 89.4083C274.251 89.4093 274.247 89.4093 274.244 89.4093Z" fill="#00A5C8"/>
<path d="M254.32 92.0134C254.32 92.0134 246.369 90.5884 234.251 93.1654C221.278 95.9254 210.905 98.4703 210.905 98.4703C210.905 98.4703 200.655 108.926 205.798 130.01C205.798 130.01 216.025 130.407 227.616 130.692C238.588 130.962 243.811 132.289 245.573 135.622C245.573 135.622 250.818 131.012 253.652 115.679C256.486 100.346 254.32 92.0134 254.32 92.0134Z" fill="#00A5C8"/>
<path opacity="0.37" d="M236.393 131.3C241.551 132.007 244.372 133.347 245.575 135.623C245.575 135.623 248.761 132.821 251.508 124.327C249.029 122.262 244.884 121.063 237.705 120.195C227.016 118.902 213.784 119.338 204.363 119.338C204.375 120.051 204.413 120.79 204.464 121.539C204.475 121.704 204.487 121.87 204.5 122.038C204.561 122.807 204.637 123.589 204.742 124.395C204.743 124.401 204.744 124.406 204.745 124.412C204.847 125.195 204.98 126.002 205.128 126.821C205.165 127.026 205.204 127.233 205.244 127.44C205.406 128.281 205.585 129.133 205.799 130.01C205.799 130.01 216.026 130.407 227.617 130.692C229.979 130.75 232.059 130.861 233.91 131.026C234.788 131.105 235.622 131.194 236.393 131.3Z" fill="#3E65AE"/>
<path d="M510.18 28.9973C510.18 28.9973 515.205 26.7803 519.638 31.0663C524.072 35.3523 525.402 45.6973 522.298 57.6683C519.194 69.6393 515.065 85.0963 496.444 85.0963C476.966 85.0963 473.069 71.0413 470.981 58.8863C469.463 50.0493 468.943 45.5443 468.943 45.5443C468.943 45.5443 464.638 44.0963 462.205 39.9713C459.145 34.7843 463.828 36.0623 468.705 35.4713C468.705 35.4713 463.001 32.3643 460.955 27.7213C457.788 20.5333 460.771 19.0163 466.83 20.3463C472.889 21.6763 479.293 19.9823 488.012 17.4703C496.732 14.9573 509.885 16.8783 510.18 28.9973Z" fill="#3F292D"/>
<path d="M562 93.0023C575.127 92.4873 612.163 83.9193 617.176 86.2613C622.19 88.6033 626.759 94.1923 620.362 102.364C613.965 110.536 575.127 125.306 565.303 125.346L562 93.0023Z" fill="#C17A61"/>
<path d="M620.362 102.364C624.845 96.6373 623.94 92.1823 621.273 89.2203C622.23 92.5333 623.344 96.3703 612.38 101.712C601.417 107.055 573.084 114.304 573.084 114.304C569.506 98.5793 561.999 93.0023 561.999 93.0023L565.303 125.346C575.127 125.306 613.965 110.536 620.362 102.364Z" fill="#B5715A"/>
<path d="M539.643 132.574C540.777 130.752 543.601 130.167 549.32 130.346C557.488 130.601 567.432 128.904 567.432 128.904C567.432 128.904 573.487 108.679 562 93.0023C562 93.0023 548.63 93.2573 537.653 92.8463C537.653 92.8463 521.978 117.819 539.643 132.574Z" fill="#FFEAA8"/>
<path d="M550.42 121.316C548.9 121.386 547.56 121.546 546.38 121.786C535.86 123.926 538.03 132.426 535.09 140.306C536.45 137.916 537.94 135.376 539.52 132.756C540.65 130.936 543.6 130.166 549.32 130.346C557.49 130.606 567.43 128.906 567.43 128.906C567.43 128.906 568.85 124.166 569.01 117.496C564.5 119.176 558.06 120.966 550.42 121.316Z" fill="#F7D89A"/>
<path d="M459.674 165.907C457.08 164.581 423.807 145.445 423.246 144.533C422.685 143.622 421.912 141.845 422.102 133.308C422.292 124.772 418.872 119.338 418.872 119.338C419.463 124.374 418.431 135.435 415.986 146.614C415.986 146.614 452.18 170.115 458.82 172.012C462.32 173.012 511.824 170.42 520.715 168.771L523.478 164.34C510.744 164.92 461.928 167.059 459.674 165.907Z" fill="#FBD1B5"/>
<path d="M414.153 57.7603C414.126 57.7723 402.119 62.9763 390.104 51.0523C390.104 51.0523 392.846 60.7283 406.451 62.3393C411.541 62.9423 416.274 61.3363 415.923 60.6803C415.383 59.6693 414.792 58.6943 414.153 57.7603Z" fill="#523C7C"/>
<path d="M536.624 167.991C540.951 171.548 546.705 174.817 553.989 176.016C553.989 176.016 567.239 155.296 572.069 143.096C572.927 140.929 573.579 137.808 573.96 134.243C558.321 167.038 536.624 167.991 536.624 167.991Z" fill="#349977"/>
<path d="M646.676 137.181C646.86 143.707 645.364 154.208 645.364 154.208L654.788 167.545C659.186 167.03 662.952 165.905 666.151 164.49L646.676 137.181Z" fill="#349977"/>
</svg>
