<svg width="24" height="19" viewBox="0 0 24 19" fill="none" xmlns="http://www.w3.org/2000/svg">
<path d="M13.6138 18.856V13.352C13.6138 9.896 14.4244 7.08 16.0458 4.904C17.7098 2.68533 20.1631 1.23466 23.4058 0.551998V4.712C21.9551 5.05333 20.8031 5.69333 19.9498 6.632C19.0964 7.528 18.5418 8.616 18.2858 9.896H22.1258V18.856H13.6138ZM0.68575 18.856V13.352C0.68575 9.896 1.49642 7.08 3.11775 4.904C4.78175 2.68533 7.21375 1.23466 10.4138 0.551998V4.712C8.96308 5.05333 7.81108 5.69333 6.95775 6.632C6.10442 7.528 5.54975 8.616 5.29375 9.896H9.13375V18.856H0.68575Z" fill="#3A4448"/>
</svg>
