<svg width="117" height="201" viewBox="0 0 117 201" fill="none" xmlns="http://www.w3.org/2000/svg">
<path d="M69.9704 38.205C105.64 32.939 123.899 61.134 112.829 86.519C101.76 111.904 105.302 121.154 114.157 139.775C123.012 158.396 110.825 194.245 50.7244 175.435C-9.37663 156.625 -11.4706 80.3081 20.4754 62.6071C52.4224 44.9081 59.3974 39.766 69.9704 38.205Z" fill="#F0EEFC"/>
<path d="M86.8674 144.602H59.9724C57.9514 144.602 56.3134 142.964 56.3134 140.943C56.3134 138.922 57.9514 137.284 59.9724 137.284H86.8674C88.8884 137.284 90.5264 138.922 90.5264 140.943C90.5264 142.963 88.8884 144.602 86.8674 144.602Z" fill="#28295D"/>
<path d="M78.2614 147.86H68.5784C66.5574 147.86 64.9194 146.222 64.9194 144.201H81.9204C81.9204 146.222 80.2824 147.86 78.2614 147.86Z" fill="#28295D"/>
<path d="M75.2314 147.86H71.6074V191.511H75.2314V147.86Z" fill="#28295D"/>
<path d="M75.0014 177.722C75.0014 187.101 83.2084 196.774 83.2084 196.774H63.6324C63.6324 196.774 69.8054 188.567 71.3774 177.722H75.0014Z" fill="#28295D"/>
<path d="M29.4734 174.188L32.2904 183.697L25.5984 185.81L20.6684 177.358L29.4734 174.188Z" fill="#FFBE9D"/>
<path d="M25.5984 185.81C25.5984 185.81 32.4664 181.055 33.5224 182.816C34.5794 184.577 36.1644 189.156 36.8684 191.973C37.5724 194.791 31.5854 199.017 26.4784 200.25C21.3714 201.483 18.9064 199.193 21.5474 197.08C24.1894 194.967 27.3584 191.445 26.4784 189.684C25.5984 187.924 24.0144 185.81 25.5984 185.81Z" fill="#28295D"/>
<path d="M65.6204 128.401C64.0174 132.64 60.7544 135.607 55.1884 137.34C54.7004 137.497 54.1844 137.635 53.6584 137.773C41.1804 140.925 23.3954 144.085 23.3954 144.085C23.3954 144.085 28.2334 150.407 30.0214 158.304C30.0954 158.608 30.1594 158.921 30.2244 159.235C31.8554 167.068 32.3444 177.573 32.3444 177.573L20.6684 182.42C20.6684 182.42 10.4114 159.566 7.07538 150.719C3.73938 141.872 0.118379 136.509 7.07538 131.763C11.9594 128.445 28.3534 119.534 37.7074 114.503C41.7064 112.356 44.4164 110.918 44.4164 110.918L66.1644 111.932C67.1964 118.698 67.2334 124.181 65.6204 128.401Z" fill="#D13F66"/>
<path d="M65.6204 128.401C63.2154 130.281 60.9664 132.05 59.7134 133.064C58.9214 133.709 57.2714 135.276 55.1884 137.34C54.7004 137.497 54.1844 137.635 53.6584 137.773C41.1804 140.925 23.3954 144.085 23.3954 144.085C23.3954 144.085 28.2334 150.407 30.0214 158.304C30.0954 158.608 30.1594 158.921 30.2244 159.235C28.0584 155.825 24.5474 150.674 21.4054 147.863C16.4194 143.403 18.3094 142.352 21.4054 136.16C24.5014 129.976 37.7804 128.106 43.0704 122.411C48.3504 116.707 41.3474 118.974 37.7074 114.504C41.7064 112.357 44.4164 110.919 44.4164 110.919L66.1644 111.933C67.1964 118.698 67.2334 124.181 65.6204 128.401Z" fill="#BA315B"/>
<path d="M91.4884 103.197C92.2074 111.196 94.0314 112.468 84.9454 112.827C75.8594 113.186 45.7064 114.458 42.2514 110.284C38.7954 106.109 44.6104 93.383 43.1544 86.306C41.7074 79.219 38.0764 73.5891 38.0764 73.5891C38.0764 73.5891 20.0884 73.764 14.4484 69.949C10.1354 67.028 18.9454 59.619 23.2954 56.319C24.6224 55.315 25.5344 54.688 25.5344 54.688C25.5344 54.688 41.7814 46.8921 45.0524 46.8921C48.3234 46.8921 69.1414 42.358 69.1414 42.358C72.9474 43.252 81.3794 48.145 83.5544 48.873C85.6094 49.555 96.7594 59.7291 99.1374 63.0461C99.2844 63.2581 99.4044 63.4421 99.4784 63.5901C100.75 66.1331 101.201 68.677 101.201 68.677C101.201 68.677 87.3044 73.405 82.2174 72.677C82.2174 72.677 82.5034 73.4421 82.9824 74.7321C84.7514 79.5521 89.1294 91.7531 90.8334 99.3921L90.8424 99.401C91.1654 100.857 91.3954 102.156 91.4884 103.197Z" fill="#A69AD7"/>
<path d="M82.2174 72.676C82.2174 72.676 82.5034 73.441 82.9824 74.731C80.0514 73.8 77.7754 72.446 77.4344 71.1C76.6424 67.939 79.0104 71.69 82.7614 68.529C86.3554 65.506 78.0154 58.328 80.5404 50.974C80.6604 50.642 80.7984 50.301 80.9554 49.97L99.1374 63.047C99.2844 63.259 99.4044 63.443 99.4784 63.591C100.75 66.134 101.201 68.678 101.201 68.678C101.201 68.678 87.3044 73.404 82.2174 72.676Z" fill="#8378C1"/>
<path d="M54.1904 174.188L57.0084 183.697L50.3164 185.81L45.3854 177.358L54.1904 174.188Z" fill="#FFBE9D"/>
<path d="M50.3164 185.81C50.3164 185.81 57.1844 181.055 58.2404 182.816C59.2974 184.577 60.8824 189.156 61.5864 191.973C62.2904 194.791 61.6434 197.529 51.1964 200.25C46.1124 201.574 43.6244 199.193 46.2654 197.08C48.9064 194.967 52.0764 191.445 51.1964 189.684C50.3164 187.924 48.7314 185.81 50.3164 185.81Z" fill="#28295D"/>
<path d="M90.8834 111.933C93.0394 126.082 90.8554 134.611 78.3764 137.77C65.8974 140.929 48.1154 144.088 48.1154 144.088C48.1154 144.088 52.9484 150.406 54.7434 158.304C56.5384 166.202 57.0644 177.575 57.0644 177.575L45.3844 182.425C45.3844 182.425 35.1304 159.568 31.7954 150.722C28.4604 141.876 24.8354 136.506 31.7954 131.767C38.7554 127.028 69.1354 110.917 69.1354 110.917L90.8834 111.933Z" fill="#E04164"/>
<path d="M90.8834 111.933C85.4554 118.093 68.0974 118.27 62.8444 119.209C57.5914 120.148 47.6994 121.291 47.6994 121.291L62.8444 107.037L71.0074 108.435L90.8834 111.933Z" fill="#BA315B"/>
<path d="M84.9454 112.828C75.8594 113.187 45.7064 114.459 42.2514 110.285C38.7954 106.11 44.6104 93.384 43.1544 86.307C41.7074 79.22 38.0764 73.59 38.0764 73.59C38.0764 73.59 20.0884 73.765 14.4484 69.95C10.1354 67.029 18.9454 59.62 23.2954 56.32L29.2574 54.864C29.8474 62.614 26.1334 65.554 29.2574 69.507C32.3814 73.451 36.2424 73.239 38.0764 69.507C39.9194 65.766 40.6384 67.94 42.2504 74.456C43.8634 80.971 48.3504 85.514 48.9684 94.601C49.5954 103.678 57.0964 97.366 63.6114 101.31C70.1264 105.263 75.1954 107.632 80.9544 105.457C86.7144 103.291 90.8334 99.393 90.8334 99.393L90.8424 99.402C91.1654 100.858 91.3954 102.157 91.4874 103.199C92.2064 111.196 94.0314 112.468 84.9454 112.828Z" fill="#8378C1"/>
<path d="M52.4224 57.719C55.5154 64.781 64.5484 65.2909 65.5484 51.8669C66.5494 38.4419 52.4224 57.719 52.4224 57.719Z" fill="#FDD59A"/>
<path opacity="0.23" d="M52.4224 57.719C55.5154 64.781 64.5484 65.2909 65.5484 51.8669C66.5494 38.4419 52.4224 57.719 52.4224 57.719Z" fill="#EF9B92"/>
<path d="M13.2754 69.224C21.9304 71.337 27.8094 61.048 31.6254 52.328C35.4404 43.607 36.4324 37.108 38.3044 35.354C40.1774 33.6 45.0834 33.981 48.1444 31.311C48.1444 31.311 53.0004 32.543 53.9714 31.059C54.9424 29.576 52.3834 29.74 52.3834 29.74C52.3834 29.74 55.8794 28.775 55.2774 27.574C54.6754 26.373 52.2734 26.522 52.2734 26.522C52.2734 26.522 55.8964 26.293 55.2774 25.305C54.6594 24.317 50.6714 23.437 47.2014 23.703C43.7314 23.97 39.4604 23.97 35.5904 29.842C31.7204 35.714 18.9084 46.658 13.8364 53.598C8.76637 60.539 4.5724 67.099 13.2754 69.224Z" fill="#FFBE9D"/>
<path d="M41.5614 39.672C42.4814 49.097 45.3374 54.236 50.2424 56.833C55.1474 59.431 60.0534 58.045 64.0504 53.716C68.0474 49.387 69.1374 44.019 69.1374 44.019L68.0474 32.59C68.0474 32.59 52.2414 26.703 51.5144 26.529C50.7874 26.356 43.1574 29.819 43.1574 29.819L41.5614 39.672Z" fill="#FFBE9D"/>
<path d="M55.3494 41.609L58.7814 40.131" stroke="#383838" stroke-width="1.0966" stroke-miterlimit="10" stroke-linecap="round"/>
<path d="M48.9704 43.11L46.4274 41.609" stroke="#383838" stroke-width="1.0966" stroke-miterlimit="10" stroke-linecap="round"/>
<path opacity="0.48" d="M52.4224 44.908C51.8774 46.151 49.5154 48.695 51.5144 48.877" stroke="#ED7845" stroke-width="1.0966" stroke-miterlimit="10" stroke-linecap="round"/>
<path opacity="0.48" d="M52.4224 52.3279C54.0574 51.4199 57.0654 52.132 57.0654 52.132" stroke="#ED7845" stroke-width="1.0966" stroke-miterlimit="10" stroke-linecap="round"/>
<path d="M40.0684 28.346C40.4314 35.068 49.3344 42.286 52.4224 40.131C55.5114 37.975 52.4224 32.707 52.4224 32.707C52.4224 32.707 60.0524 39.974 62.9594 38.158C65.8664 36.341 62.9594 32.707 62.9594 32.707C62.9594 32.707 64.4974 37.892 68.4734 37.59C72.4494 37.288 72.7164 32.707 72.7164 32.707L61.1424 25.258C61.1424 25.258 48.4244 21.261 47.6984 21.624C46.9724 21.988 40.0684 28.346 40.0684 28.346Z" fill="#28295D"/>
<path d="M41.6974 41.609C37.3434 38.52 37.0234 30.611 40.1814 29.297C43.3394 27.983 46.4284 31.06 46.4284 31.06L41.6974 41.609Z" fill="#28295D"/>
<path d="M42.2534 28.165C38.0704 25.076 39.5234 16.174 44.2474 15.084C48.9714 13.994 50.7254 19.808 50.7254 19.808C50.7254 19.808 52.8064 17.628 57.0654 18.536C61.3254 19.444 58.7814 22.715 58.7814 22.715C58.7814 22.715 64.8354 20.898 66.8954 23.987C68.9554 27.076 65.6604 28.166 65.6604 28.166C65.6604 28.166 72.2464 27.793 74.0434 31.8C77.9534 40.521 69.1384 46.582 69.1384 46.582L52.4244 28.973L42.2534 28.165Z" fill="#28295D"/>
<path d="M65.4284 39.659C65.4284 39.659 67.7904 36.207 69.9704 38.206C72.1504 40.204 70.6973 47.653 67.4263 47.108C64.1563 46.563 65.4284 39.659 65.4284 39.659Z" fill="#FFBE9D"/>
<path d="M67.2604 41.609C68.8284 38.838 69.7314 39.751 69.1374 42.36C68.5434 44.969 67.6874 45.053 67.6874 45.053L67.2604 41.609Z" fill="#EF9B92"/>
<path d="M99.4774 69.224C90.8224 71.337 84.9434 61.048 81.1274 52.328C77.3124 43.607 76.3204 37.108 74.4474 35.354C72.5744 33.6 67.6684 33.981 64.6074 31.311C64.6074 31.311 59.7514 32.543 58.7804 31.059C57.8094 29.576 60.3684 29.74 60.3684 29.74C60.3684 29.74 56.8724 28.775 57.4744 27.574C58.0764 26.373 60.4784 26.522 60.4784 26.522C60.4784 26.522 56.8554 26.293 57.4744 25.305C58.0924 24.317 62.0804 23.437 65.5504 23.703C69.0204 23.97 73.2914 23.97 77.1614 29.842C81.0314 35.714 93.8434 46.658 98.9154 53.598C103.987 60.539 108.18 67.099 99.4774 69.224Z" fill="#FFBE9D"/>
<path d="M38.5644 11.715L34.3174 7.36897V9.78197L29.3144 6.38696L35.1214 12.162L35.5684 10.318L38.5644 11.715Z" fill="#E04164"/>
<path d="M59.1074 12.774L62.0654 4.388L63.5524 7.589L68.0984 0L63.9524 11.244L62.2224 9.07199L59.1074 12.774Z" fill="#E04164"/>
<path d="M76.3024 19.326L79.6154 14.845L79.9184 17.037L84.0374 13.325L79.4864 19.3L78.8494 17.6799L76.3024 19.326Z" fill="#E04164"/>
</svg>
